<?xml version="1.0" encoding="utf-8"?>
<!-- Generator: Adobe Illustrator 19.0.0, SVG Export Plug-In . SVG Version: 6.00 Build 0)  -->
<!DOCTYPE svg PUBLIC "-//W3C//DTD SVG 1.1//EN" "http://www.w3.org/Graphics/SVG/1.1/DTD/svg11.dtd">
<svg version="1.1" id="logo" xmlns="http://www.w3.org/2000/svg" xmlns:xlink="http://www.w3.org/1999/xlink" x="0px" y="0px"
	 viewBox="0 0 401.37 34.68" style="enable-background:new 0 0 401.37 34.68;" xml:space="preserve">
<style type="text/css">
	.st0{fill:#E22534;}
	.st1{fill:#FFFFFF;}
</style>
<g>
	<g>
		<path class="st0" d="M234.16,17.56c0,0.4,0,0.79-0.01,1.17c-0.01,0.38-0.01,0.69-0.01,0.94v6.68h3.61V8.15h-3.56l-3.68,8.24
			c-0.24,0.52-0.47,1.07-0.7,1.65c-0.23,0.58-0.4,1.05-0.52,1.39c-0.05-0.15-0.13-0.35-0.22-0.6c-0.1-0.24-0.2-0.5-0.31-0.78
			c-0.12-0.27-0.23-0.55-0.35-0.84c-0.12-0.29-0.25-0.56-0.37-0.82l-3.78-8.24h-3.51v18.2h3.56v-6.68c0-0.25-0.01-0.56-0.02-0.94
			c0-0.38-0.01-0.77-0.01-1.17s0-0.77-0.01-1.12c-0.01-0.34-0.01-0.6-0.01-0.78c0.13,0.35,0.32,0.81,0.55,1.38
			c0.24,0.57,0.48,1.12,0.72,1.64l3.68,8.09l3.7-8.09c0.25-0.52,0.48-1.07,0.72-1.64c0.23-0.57,0.42-1.03,0.56-1.38
			c0,0.18,0,0.44-0.01,0.78C234.17,16.79,234.16,17.16,234.16,17.56z M177.97,13.3l2.62-2.56c-0.86-0.91-1.83-1.61-2.89-2.12
			c-1.07-0.51-2.32-0.76-3.74-0.76c-0.9,0-1.74,0.12-2.53,0.36c-0.79,0.25-1.48,0.6-2.07,1.06s-1.05,1.02-1.39,1.68
			c-0.34,0.65-0.51,1.4-0.51,2.23c0,0.9,0.14,1.66,0.42,2.26c0.28,0.61,0.66,1.11,1.17,1.51c0.5,0.4,1.1,0.73,1.81,0.99
			c0.7,0.26,1.47,0.49,2.3,0.68c0.85,0.19,1.54,0.37,2.08,0.54c0.53,0.18,0.95,0.36,1.23,0.55c0.29,0.19,0.48,0.39,0.59,0.61
			c0.1,0.22,0.15,0.47,0.15,0.77c0,0.69-0.25,1.19-0.76,1.5c-0.51,0.32-1.32,0.47-2.41,0.47c-0.88,0-1.72-0.16-2.51-0.48
			c-0.79-0.32-1.5-0.85-2.14-1.6l-2.63,2.34c0.69,1.03,1.66,1.83,2.91,2.42s2.64,0.89,4.16,0.89c1.25,0,2.32-0.14,3.21-0.42
			c0.9-0.28,1.64-0.67,2.23-1.18c0.59-0.51,1.02-1.12,1.3-1.83c0.28-0.71,0.41-1.5,0.41-2.36c0-0.99-0.18-1.8-0.54-2.44
			c-0.37-0.64-0.84-1.17-1.42-1.59c-0.58-0.41-1.23-0.74-1.95-0.97c-0.72-0.23-1.44-0.44-2.17-0.61c-0.73-0.17-1.33-0.33-1.79-0.47
			c-0.47-0.14-0.85-0.28-1.12-0.44c-0.28-0.16-0.48-0.33-0.59-0.53s-0.17-0.45-0.17-0.74c0-0.21,0.05-0.41,0.13-0.6
			c0.09-0.19,0.24-0.36,0.44-0.52c0.21-0.15,0.48-0.28,0.81-0.37c0.33-0.1,0.74-0.15,1.22-0.15c0.84,0,1.59,0.16,2.25,0.48
			C176.75,12.22,177.38,12.69,177.97,13.3z M401.37,0v34.68H119.28V0H401.37z M393.02,26.35v-3.56h-9.12V8.15h-3.62v18.2H393.02z
			 M376.12,26.35l-6.92-18.2h-3.53l-6.97,18.2h3.9l1.43-4.06h6.66l1.43,4.06H376.12z M358.15,11.71V8.15h-14.07v3.56h5.23v14.64
			h3.61V11.71H358.15z M341.27,26.35l-3.48-7.07c1.16-0.45,2.03-1.12,2.61-1.99c0.58-0.88,0.87-2,0.87-3.37
			c0-0.97-0.16-1.82-0.49-2.54c-0.33-0.71-0.78-1.32-1.35-1.8c-0.57-0.49-1.24-0.85-2-1.08c-0.77-0.24-1.57-0.35-2.42-0.35h-8.48
			v18.2h3.61V19.8h3.68l3.26,6.55H341.27z M322.08,17.22c0-1.47-0.19-2.78-0.58-3.94c-0.39-1.15-0.94-2.13-1.64-2.94
			c-0.7-0.8-1.54-1.42-2.52-1.84c-0.98-0.43-2.06-0.64-3.24-0.64c-1.2,0-2.29,0.22-3.28,0.65c-0.98,0.43-1.83,1.05-2.54,1.86
			c-0.72,0.81-1.27,1.79-1.66,2.95c-0.39,1.16-0.58,2.48-0.58,3.95c0,1.48,0.19,2.79,0.58,3.94c0.39,1.16,0.94,2.14,1.64,2.94
			c0.7,0.81,1.55,1.42,2.53,1.85c0.97,0.42,2.06,0.64,3.26,0.64c1.18,0,2.26-0.22,3.25-0.65c0.99-0.44,1.84-1.06,2.55-1.86
			c0.71-0.81,1.26-1.79,1.65-2.96C321.89,20.01,322.08,18.7,322.08,17.22z M302.81,13.92c0-0.97-0.16-1.82-0.49-2.54
			c-0.33-0.71-0.78-1.32-1.35-1.8c-0.57-0.49-1.24-0.85-2-1.08c-0.77-0.24-1.57-0.35-2.42-0.35h-7.96v18.2h3.62V19.9h4.01
			c0.94,0,1.81-0.11,2.62-0.34c0.81-0.22,1.51-0.58,2.1-1.06c0.59-0.49,1.05-1.11,1.38-1.86C302.65,15.88,302.81,14.98,302.81,13.92
			z M275.67,26.35l-3.49-7.07c1.16-0.45,2.03-1.12,2.61-1.99c0.59-0.88,0.88-2,0.88-3.37c0-0.97-0.17-1.82-0.5-2.54
			c-0.33-0.71-0.78-1.32-1.35-1.8c-0.57-0.49-1.24-0.85-2-1.08c-0.77-0.24-1.57-0.35-2.42-0.35h-8.48v18.2h3.62V19.8h3.67l3.26,6.55
			H275.67z M256.24,26.35v-3.56h-9.39v-4.4h5.23v-3.56h-5.23v-3.12h9V8.15h-12.61v18.2H256.24z M216.3,17.22
			c0-1.47-0.2-2.78-0.59-3.94c-0.39-1.15-0.93-2.13-1.63-2.94c-0.71-0.8-1.55-1.42-2.53-1.84c-0.98-0.43-2.06-0.64-3.23-0.64
			c-1.2,0-2.29,0.22-3.28,0.65c-0.99,0.43-1.84,1.05-2.55,1.86c-0.71,0.81-1.26,1.79-1.65,2.95s-0.59,2.48-0.59,3.95
			c0,1.48,0.2,2.79,0.59,3.94c0.39,1.16,0.94,2.14,1.64,2.94c0.7,0.81,1.54,1.42,2.52,1.85c0.98,0.42,2.07,0.64,3.26,0.64
			c1.18,0,2.27-0.22,3.25-0.65c0.99-0.44,1.84-1.06,2.55-1.86c0.71-0.81,1.26-1.79,1.65-2.96C216.1,20.01,216.3,18.7,216.3,17.22z
			 M197.83,11.71V8.15h-14.06v3.56h5.22v14.64h3.62V11.71H197.83z M162.29,18.31V8.15h-3.62v10.22c0,1.47-0.33,2.62-1,3.46
			c-0.67,0.83-1.59,1.24-2.75,1.24c-1.17,0-2.08-0.42-2.75-1.27c-0.66-0.85-0.99-2.01-0.99-3.49V8.15h-3.61v10.22
			c0,1.33,0.18,2.51,0.53,3.53c0.36,1.03,0.85,1.89,1.49,2.59c0.64,0.7,1.42,1.24,2.33,1.6s1.9,0.55,3,0.55
			c2.31,0,4.12-0.73,5.42-2.18C161.64,23.02,162.29,20.97,162.29,18.31z M140.16,13.45l3.38-1.56c-0.3-0.59-0.65-1.13-1.06-1.62
			c-0.4-0.5-0.88-0.92-1.43-1.28c-0.54-0.35-1.16-0.63-1.85-0.83c-0.7-0.2-1.47-0.3-2.32-0.3c-1.2,0-2.29,0.23-3.28,0.69
			c-0.98,0.46-1.83,1.1-2.54,1.92c-0.72,0.83-1.27,1.82-1.67,2.97s-0.6,2.42-0.6,3.81c0,1.44,0.19,2.73,0.58,3.89
			c0.38,1.15,0.92,2.13,1.62,2.95c0.7,0.81,1.54,1.44,2.51,1.88c0.97,0.45,2.05,0.67,3.25,0.67c1.67,0,3.05-0.36,4.15-1.08
			c1.1-0.72,1.96-1.73,2.59-3.03l-3.07-1.82c-0.49,0.81-1,1.4-1.52,1.76c-0.53,0.37-1.21,0.55-2.05,0.55
			c-0.67,0-1.28-0.15-1.82-0.44c-0.53-0.3-0.99-0.7-1.36-1.22c-0.37-0.52-0.66-1.13-0.85-1.84c-0.19-0.7-0.28-1.46-0.28-2.27
			c0-0.85,0.09-1.63,0.28-2.33c0.19-0.7,0.47-1.31,0.84-1.82c0.36-0.51,0.81-0.91,1.35-1.2c0.54-0.28,1.14-0.43,1.82-0.43
			c0.83,0,1.51,0.18,2.04,0.53C139.4,12.34,139.83,12.83,140.16,13.45z"/>
		<g>
			<path class="st0" d="M366.98,13.97c0.17-0.5,0.29-0.93,0.38-1.27c0.08,0.34,0.21,0.77,0.38,1.27c0.16,0.5,0.34,1.02,0.53,1.56
				l1.17,3.3h-4.16l1.17-3.3C366.64,14.99,366.82,14.47,366.98,13.97z"/>
			<path class="st0" d="M337.53,14.01c0,1.57-0.87,2.35-2.61,2.35h-4.78v-4.65h4.78c0.82,0,1.46,0.18,1.92,0.53
				C337.3,12.59,337.53,13.18,337.53,14.01z"/>
			<path class="st0" d="M318.34,17.27c0,1.86-0.39,3.28-1.16,4.27c-0.77,0.99-1.8,1.48-3.08,1.48s-2.32-0.5-3.12-1.51
				c-0.8-1-1.2-2.43-1.2-4.29c0-1.85,0.39-3.27,1.16-4.26s1.8-1.49,3.08-1.49c1.29,0,2.33,0.51,3.12,1.51
				C317.94,13.99,318.34,15.42,318.34,17.27z"/>
			<path class="st0" d="M299.07,14c0,1.56-0.87,2.34-2.61,2.34h-4.25v-4.63h4.2c0.82,0,1.46,0.18,1.94,0.55
				C298.83,12.63,299.07,13.21,299.07,14z"/>
			<path class="st0" d="M271.92,14.01c0,1.57-0.87,2.35-2.61,2.35h-4.77v-4.65h4.77c0.82,0,1.46,0.18,1.92,0.53
				C271.69,12.59,271.92,13.18,271.92,14.01z"/>
			<path class="st0" d="M212.55,17.27c0,1.86-0.38,3.28-1.15,4.27c-0.78,0.99-1.8,1.48-3.08,1.48c-1.29,0-2.33-0.5-3.13-1.51
				c-0.79-1-1.19-2.43-1.19-4.29c0-1.85,0.38-3.27,1.16-4.26c0.77-0.99,1.79-1.49,3.08-1.49c1.28,0,2.32,0.51,3.12,1.51
				C212.16,13.99,212.55,15.42,212.55,17.27z"/>
		</g>
	</g>
</g>
<g>
	<g>
		<path class="st1" d="M12.77,17.12c-0.71,0.88-1.69,1.48-2.94,1.79l3.72,7.44h-3.14l-3.61-7.2H2.7v7.2H0V8.15h7.98
			c0.8,0,1.55,0.11,2.25,0.33s1.32,0.55,1.86,0.99c0.54,0.44,0.96,1.01,1.27,1.69c0.31,0.69,0.47,1.5,0.47,2.43
			C13.83,15.05,13.48,16.23,12.77,17.12z M10.24,11.47c-0.56-0.5-1.31-0.75-2.24-0.75H2.7v5.85h5.29c0.92,0,1.66-0.24,2.23-0.72
			c0.57-0.48,0.86-1.21,0.86-2.2C11.08,12.71,10.8,11.98,10.24,11.47z"/>
		<path class="st1" d="M18.83,26.35V8.15h11.7v2.68h-9v4.45h5.23v2.68h-5.23v5.72h9.39v2.68H18.83z"/>
		<path class="st1" d="M48.72,21.38c-0.48,1.14-1.12,2.08-1.94,2.82c-0.81,0.74-1.76,1.28-2.82,1.62c-1.07,0.35-2.2,0.52-3.39,0.52
			H35.6V8.15h4.97c1.21,0,2.36,0.17,3.45,0.52c1.08,0.35,2.02,0.89,2.82,1.63c0.8,0.74,1.43,1.68,1.9,2.82
			c0.47,1.14,0.7,2.52,0.7,4.13S49.2,20.24,48.72,21.38z M46.31,14.65c-0.23-0.79-0.59-1.46-1.08-2.03c-0.5-0.57-1.13-1.01-1.9-1.32
			c-0.77-0.31-1.7-0.47-2.78-0.47H38.3v12.85h2.24c1.08,0,2-0.16,2.78-0.47c0.77-0.31,1.41-0.75,1.9-1.32
			c0.5-0.57,0.86-1.25,1.08-2.03c0.23-0.79,0.34-1.65,0.34-2.6C46.65,16.3,46.54,15.43,46.31,14.65z"/>
		<path class="st1" d="M72.94,26.35v-8.11h-8.4v8.11h-2.71V8.15h2.71v7.36h8.4V8.15h2.7v18.2H72.94z"/>
		<path class="st1" d="M93.2,26.35l-1.53-4.32h-7.28l-1.51,4.32h-2.83l6.55-18.2h2.89l6.63,18.2H93.2z M89.38,15.4
			c-0.1-0.33-0.23-0.69-0.36-1.09c-0.14-0.4-0.27-0.8-0.4-1.2c-0.13-0.4-0.25-0.77-0.36-1.11c-0.11-0.34-0.2-0.6-0.25-0.79
			c-0.05,0.19-0.13,0.46-0.23,0.79c-0.1,0.34-0.22,0.7-0.34,1.09c-0.12,0.39-0.25,0.79-0.38,1.21s-0.26,0.79-0.38,1.12l-1.46,4.16
			h5.62L89.38,15.4z"/>
		<path class="st1" d="M105,10.82v15.53h-2.7V10.82H97V8.15h13.31v2.68H105z"/>
	</g>
	<g>
		<polygon class="st1" points="393.02,22.79 393.02,26.35 380.28,26.35 380.28,8.15 383.9,8.15 383.9,22.79 		"/>
		<path class="st1" d="M369.2,8.15l6.92,18.2h-4l-1.43-4.06h-6.66l-1.43,4.06h-3.9l6.97-18.2H369.2z M369.44,18.83l-1.17-3.3
			c-0.19-0.54-0.37-1.06-0.53-1.56c-0.17-0.5-0.3-0.93-0.38-1.27c-0.09,0.34-0.21,0.77-0.38,1.27c-0.16,0.5-0.34,1.02-0.53,1.56
			l-1.17,3.3H369.44z"/>
		<polygon class="st1" points="358.15,8.15 358.15,11.71 352.92,11.71 352.92,26.35 349.31,26.35 349.31,11.71 344.08,11.71 
			344.08,8.15 		"/>
		<path class="st1" d="M337.79,19.28l3.48,7.07h-4.19l-3.26-6.55h-3.68v6.55h-3.61V8.15h8.48c0.85,0,1.65,0.11,2.42,0.35
			c0.76,0.23,1.43,0.59,2,1.08c0.57,0.48,1.02,1.09,1.35,1.8c0.33,0.72,0.49,1.57,0.49,2.54c0,1.37-0.29,2.49-0.87,3.37
			C339.82,18.16,338.95,18.83,337.79,19.28z M334.92,16.36c1.74,0,2.61-0.78,2.61-2.35c0-0.83-0.23-1.42-0.69-1.77
			c-0.46-0.35-1.1-0.53-1.92-0.53h-4.78v4.65H334.92z"/>
		<path class="st1" d="M321.5,13.28c0.39,1.16,0.58,2.47,0.58,3.94c0,1.48-0.19,2.79-0.58,3.95c-0.39,1.17-0.94,2.15-1.65,2.96
			c-0.71,0.8-1.56,1.42-2.55,1.86c-0.99,0.43-2.07,0.65-3.25,0.65c-1.2,0-2.29-0.22-3.26-0.64c-0.98-0.43-1.83-1.04-2.53-1.85
			c-0.7-0.8-1.25-1.78-1.64-2.94c-0.39-1.15-0.58-2.46-0.58-3.94c0-1.47,0.19-2.79,0.58-3.95c0.39-1.16,0.94-2.14,1.66-2.95
			c0.71-0.81,1.56-1.43,2.54-1.86c0.99-0.43,2.08-0.65,3.28-0.65c1.18,0,2.26,0.21,3.24,0.64c0.98,0.42,1.82,1.04,2.52,1.84
			C320.56,11.15,321.11,12.13,321.5,13.28z M317.18,21.54c0.77-0.99,1.16-2.41,1.16-4.27c0-1.85-0.4-3.28-1.2-4.29
			c-0.79-1-1.83-1.51-3.12-1.51c-1.28,0-2.31,0.5-3.08,1.49s-1.16,2.41-1.16,4.26c0,1.86,0.4,3.29,1.2,4.29
			c0.8,1.01,1.84,1.51,3.12,1.51S316.41,22.53,317.18,21.54z"/>
		<path class="st1" d="M302.32,11.38c0.33,0.72,0.49,1.57,0.49,2.54c0,1.06-0.16,1.96-0.49,2.72c-0.33,0.75-0.79,1.37-1.38,1.86
			c-0.59,0.48-1.29,0.84-2.1,1.06c-0.81,0.23-1.68,0.34-2.62,0.34h-4.01v6.45h-3.62V8.15h7.96c0.85,0,1.65,0.11,2.42,0.35
			c0.76,0.23,1.43,0.59,2,1.08C301.54,10.06,301.99,10.67,302.32,11.38z M296.46,16.34c1.74,0,2.61-0.78,2.61-2.34
			c0-0.79-0.24-1.37-0.72-1.74c-0.48-0.37-1.12-0.55-1.94-0.55h-4.2v4.63H296.46z"/>
		<path class="st1" d="M272.18,19.28l3.49,7.07h-4.2l-3.26-6.55h-3.67v6.55h-3.62V8.15h8.48c0.85,0,1.65,0.11,2.42,0.35
			c0.76,0.23,1.43,0.59,2,1.08c0.57,0.48,1.02,1.09,1.35,1.8c0.33,0.72,0.5,1.57,0.5,2.54c0,1.37-0.29,2.49-0.88,3.37
			C274.21,18.16,273.34,18.83,272.18,19.28z M269.31,16.36c1.74,0,2.61-0.78,2.61-2.35c0-0.83-0.23-1.42-0.69-1.77
			c-0.46-0.35-1.1-0.53-1.92-0.53h-4.77v4.65H269.31z"/>
		<polygon class="st1" points="256.24,22.79 256.24,26.35 243.24,26.35 243.24,8.15 255.85,8.15 255.85,11.71 246.85,11.71 
			246.85,14.83 252.08,14.83 252.08,18.39 246.85,18.39 246.85,22.79 		"/>
		<path class="st1" d="M232.91,18.68l-3.7,8.09l-3.68-8.09c-0.24-0.52-0.48-1.07-0.72-1.64c-0.23-0.57-0.42-1.03-0.55-1.38
			c0,0.18,0,0.44,0.01,0.78c0.01,0.35,0.01,0.72,0.01,1.12s0.01,0.79,0.01,1.17c0.01,0.38,0.02,0.69,0.02,0.94v6.68h-3.56V8.15h3.51
			l3.78,8.24c0.12,0.26,0.25,0.53,0.37,0.82c0.12,0.29,0.23,0.57,0.35,0.84c0.11,0.28,0.21,0.54,0.31,0.78
			c0.09,0.25,0.17,0.45,0.22,0.6c0.12-0.34,0.29-0.81,0.52-1.39c0.23-0.58,0.46-1.13,0.7-1.65l3.68-8.24h3.56v18.2h-3.61v-6.68
			c0-0.25,0-0.56,0.01-0.94c0.01-0.38,0.01-0.77,0.01-1.17s0.01-0.77,0.02-1.12c0.01-0.34,0.01-0.6,0.01-0.78
			c-0.14,0.35-0.33,0.81-0.56,1.38C233.39,17.61,233.16,18.16,232.91,18.68z"/>
		<path class="st1" d="M215.71,13.28c0.39,1.16,0.59,2.47,0.59,3.94c0,1.48-0.2,2.79-0.59,3.95c-0.39,1.17-0.94,2.15-1.65,2.96
			c-0.71,0.8-1.56,1.42-2.55,1.86c-0.98,0.43-2.07,0.65-3.25,0.65c-1.19,0-2.28-0.22-3.26-0.64c-0.98-0.43-1.82-1.04-2.52-1.85
			c-0.7-0.8-1.25-1.78-1.64-2.94c-0.39-1.15-0.59-2.46-0.59-3.94c0-1.47,0.2-2.79,0.59-3.95s0.94-2.14,1.65-2.95
			c0.71-0.81,1.56-1.43,2.55-1.86c0.99-0.43,2.08-0.65,3.28-0.65c1.17,0,2.25,0.21,3.23,0.64c0.98,0.42,1.82,1.04,2.53,1.84
			C214.78,11.15,215.32,12.13,215.71,13.28z M211.4,21.54c0.77-0.99,1.15-2.41,1.15-4.27c0-1.85-0.39-3.28-1.19-4.29
			c-0.8-1-1.84-1.51-3.12-1.51c-1.29,0-2.31,0.5-3.08,1.49c-0.78,0.99-1.16,2.41-1.16,4.26c0,1.86,0.4,3.29,1.19,4.29
			c0.8,1.01,1.84,1.51,3.13,1.51C209.6,23.02,210.62,22.53,211.4,21.54z"/>
		<polygon class="st1" points="197.83,8.15 197.83,11.71 192.61,11.71 192.61,26.35 188.99,26.35 188.99,11.71 183.77,11.71 
			183.77,8.15 		"/>
		<path class="st1" d="M180.98,20.85c0,0.86-0.13,1.65-0.41,2.36c-0.28,0.71-0.71,1.32-1.3,1.83c-0.59,0.51-1.33,0.9-2.23,1.18
			c-0.89,0.28-1.96,0.42-3.21,0.42c-1.52,0-2.91-0.3-4.16-0.89s-2.22-1.39-2.91-2.42l2.63-2.34c0.64,0.75,1.35,1.28,2.14,1.6
			c0.79,0.32,1.63,0.48,2.51,0.48c1.09,0,1.9-0.15,2.41-0.47c0.51-0.31,0.76-0.81,0.76-1.5c0-0.3-0.05-0.55-0.15-0.77
			c-0.11-0.22-0.3-0.42-0.59-0.61c-0.28-0.19-0.7-0.37-1.23-0.55c-0.54-0.17-1.23-0.35-2.08-0.54c-0.83-0.19-1.6-0.42-2.3-0.68
			c-0.71-0.26-1.31-0.59-1.81-0.99c-0.51-0.4-0.89-0.9-1.17-1.51c-0.28-0.6-0.42-1.36-0.42-2.26c0-0.83,0.17-1.58,0.51-2.23
			c0.34-0.66,0.8-1.22,1.39-1.68s1.28-0.81,2.07-1.06c0.79-0.24,1.63-0.36,2.53-0.36c1.42,0,2.67,0.25,3.74,0.76
			c1.06,0.51,2.03,1.21,2.89,2.12l-2.62,2.56c-0.59-0.61-1.22-1.08-1.89-1.4c-0.66-0.32-1.41-0.48-2.25-0.48
			c-0.48,0-0.89,0.05-1.22,0.15c-0.33,0.09-0.6,0.22-0.81,0.37c-0.2,0.16-0.35,0.33-0.44,0.52c-0.08,0.19-0.13,0.39-0.13,0.6
			c0,0.29,0.06,0.54,0.17,0.74s0.31,0.37,0.59,0.53c0.27,0.16,0.65,0.3,1.12,0.44c0.46,0.14,1.06,0.3,1.79,0.47
			c0.73,0.17,1.45,0.38,2.17,0.61c0.72,0.23,1.37,0.56,1.95,0.97c0.58,0.42,1.05,0.95,1.42,1.59
			C180.8,19.05,180.98,19.86,180.98,20.85z"/>
		<path class="st1" d="M162.29,8.15v10.16c0,2.66-0.65,4.71-1.95,6.15c-1.3,1.45-3.11,2.18-5.42,2.18c-1.1,0-2.09-0.19-3-0.55
			s-1.69-0.9-2.33-1.6c-0.64-0.7-1.13-1.56-1.49-2.59c-0.35-1.02-0.53-2.2-0.53-3.53V8.15h3.61v10.16c0,1.48,0.33,2.64,0.99,3.49
			c0.67,0.85,1.58,1.27,2.75,1.27c1.16,0,2.08-0.41,2.75-1.24c0.67-0.84,1-1.99,1-3.46V8.15H162.29z"/>
		<path class="st1" d="M143.54,11.89l-3.38,1.56c-0.33-0.62-0.76-1.11-1.29-1.45c-0.53-0.35-1.21-0.53-2.04-0.53
			c-0.68,0-1.28,0.15-1.82,0.43c-0.54,0.29-0.99,0.69-1.35,1.2c-0.37,0.51-0.65,1.12-0.84,1.82c-0.19,0.7-0.28,1.48-0.28,2.33
			c0,0.81,0.09,1.57,0.28,2.27c0.19,0.71,0.48,1.32,0.85,1.84c0.37,0.52,0.83,0.92,1.36,1.22c0.54,0.29,1.15,0.44,1.82,0.44
			c0.84,0,1.52-0.18,2.05-0.55c0.52-0.36,1.03-0.95,1.52-1.76l3.07,1.82c-0.63,1.3-1.49,2.31-2.59,3.03
			c-1.1,0.72-2.48,1.08-4.15,1.08c-1.2,0-2.28-0.22-3.25-0.67c-0.97-0.44-1.81-1.07-2.51-1.88c-0.7-0.82-1.24-1.8-1.62-2.95
			c-0.39-1.16-0.58-2.45-0.58-3.89c0-1.39,0.2-2.66,0.6-3.81s0.95-2.14,1.67-2.97c0.71-0.82,1.56-1.46,2.54-1.92
			c0.99-0.46,2.08-0.69,3.28-0.69c0.85,0,1.62,0.1,2.32,0.3c0.69,0.2,1.31,0.48,1.85,0.83c0.55,0.36,1.03,0.78,1.43,1.28
			C142.89,10.76,143.24,11.3,143.54,11.89z"/>
	</g>
</g>
</svg>
