<?xml version="1.0" encoding="utf-8"?>
<!-- Generator: Adobe Illustrator 21.0.2, SVG Export Plug-In . SVG Version: 6.00 Build 0)  -->
<svg version="1.1"
	 id="svg8" inkscape:export-filename="/home/mclayton/workspace/engage/src/images/cve.png" inkscape:export-xdpi="1808.04" inkscape:export-ydpi="1808.04" inkscape:version="0.92.1 r" sodipodi:docname="documentation.svg" xmlns:cc="http://creativecommons.org/ns#" xmlns:dc="http://purl.org/dc/elements/1.1/" xmlns:inkscape="http://www.inkscape.org/namespaces/inkscape" xmlns:osb="http://www.openswatchbook.org/uri/2009/osb" xmlns:rdf="http://www.w3.org/1999/02/22-rdf-syntax-ns#" xmlns:sodipodi="http://sodipodi.sourceforge.net/DTD/sodipodi-0.dtd" xmlns:svg="http://www.w3.org/2000/svg"
	 xmlns="http://www.w3.org/2000/svg" xmlns:xlink="http://www.w3.org/1999/xlink" x="0px" y="0px" viewBox="0 0 90 100"
	 style="enable-background:new 0 0 90 100;" xml:space="preserve">
<style type="text/css">
	.st0{fill:url(#path7659_1_);}
	.st1{fill:#AD9976;stroke:#6C5B3D;stroke-width:0.4592;stroke-linecap:round;stroke-linejoin:round;}
	.st2{fill:#E5CFAE;stroke:#5B3B3B;stroke-width:0.4592;stroke-linecap:round;stroke-linejoin:round;}
	.st3{fill:#330000;stroke:#6C5B3D;stroke-width:0.4592;stroke-linecap:round;stroke-linejoin:round;}
	.st4{fill:#422A2A;}
	.st5{fill:#2D1010;}
	.st6{font-family:'Interstate-Bold';}
	.st7{font-size:20.6643px;}
	.st8{fill:#F1EDE7;}
	.st9{fill-opacity:0.2;}
	.st10{fill-opacity:0.15;}
</style>
<sodipodi:namedview  bordercolor="#666666" borderopacity="1.0" fit-margin-bottom="0" fit-margin-left="0" fit-margin-right="0" fit-margin-top="0" id="base" inkscape:current-layer="layer1" inkscape:cx="71.537464" inkscape:cy="46.966626" inkscape:document-units="mm" inkscape:object-nodes="false" inkscape:object-paths="false" inkscape:pageopacity="0" inkscape:pageshadow="2" inkscape:snap-bbox="true" inkscape:snap-grids="true" inkscape:snap-intersection-paths="false" inkscape:snap-nodes="false" inkscape:snap-object-midpoints="false" inkscape:snap-others="true" inkscape:snap-page="true" inkscape:snap-to-guides="true" inkscape:window-height="1080" inkscape:window-maximized="1" inkscape:window-width="1920" inkscape:window-x="0" inkscape:window-y="0" inkscape:zoom="4" pagecolor="#252142" showgrid="false">
	<inkscape:grid  id="grid4546" originx="-123.58022" originy="-166.39294" type="xygrid"></inkscape:grid>
</sodipodi:namedview>
<defs>
	
	
		<inkscape:path-effect  center_point="141.55207,107.82272" discard_orig_path="false" effect="mirror_symmetry" end_point="168.58758,107.82272" fuse_paths="false" id="path-effect5646" is_visible="true" mode="free" oposite_fuse="false" start_point="114.51656,107.82272">
		</inkscape:path-effect>
</defs>
<g id="Documentation" transform="translate(-123.58021,-84.57551)" inkscape:groupmode="layer" inkscape:label="Layer 1">
	
		<linearGradient id="path7659_1_" gradientUnits="userSpaceOnUse" x1="-821.1879" y1="1226.5676" x2="-820.45" y2="1226.5676" gradientTransform="matrix(101.9205 0 0 -125.1115 83826.5234 153592.9375)">
		<stop  offset="0" style="stop-color:#000000"/>
		<stop  offset="1" style="stop-color:#000000"/>
	</linearGradient>
	
		<path id="path7659" inkscape:connector-curvature="0" inkscape:export-xdpi="64.30999755859375" inkscape:export-ydpi="64.30999755859375" sodipodi:nodetypes="ccccccc" class="st0" d="
		M133.3,89.1c1.6,0,48.3-0.1,72.5-0.1v92.2c-23.8,0.2-69.3,0-72.5,0c-1.6,0-2.7-1-2.7-2.6V91.6C130.6,90.1,131.7,89.1,133.3,89.1
		L133.3,89.1z"/>
	
		<path id="path7657" inkscape:connector-curvature="0" inkscape:export-xdpi="64.30999755859375" inkscape:export-ydpi="64.30999755859375" sodipodi:nodetypes="ccccccc" class="st1" d="
		M132.3,90.6c1.7,0,49.8-0.1,74.8-0.1v91.9c-24.5,0.2-71.4,0-74.8,0c-1.7,0-2.8-1-2.8-2.6V93.1C129.5,91.6,130.6,90.6,132.3,90.6
		L132.3,90.6z"/>
	
		<path id="rect5660" inkscape:connector-curvature="0" inkscape:export-xdpi="64.30999755859375" inkscape:export-ydpi="64.30999755859375" sodipodi:nodetypes="ccccccc" class="st2" d="
		M132.3,87.3c1.7,0,49.8-0.1,74.8-0.1v91.9c-24.5,0.2-71.4,0-74.8,0c-1.7,0-2.8-1-2.8-2.6V89.8C129.5,88.3,130.6,87.3,132.3,87.3
		L132.3,87.3z"/>
	
		<path id="path7661" inkscape:connector-curvature="0" inkscape:export-xdpi="64.30999755859375" inkscape:export-ydpi="64.30999755859375" sodipodi:nodetypes="ccsccc" class="st3" d="
		M137.3,87.3c-0.8,0-4.9,0-5,0c-1.7,0-2.8,1-2.8,2.5v90c3.2,0.1,4.8-0.7,7.8-0.7V87.3z"/>
	
		<rect id="rect7632" x="136.6" y="87.4" inkscape:export-xdpi="64.30999755859375" inkscape:export-ydpi="64.30999755859375" class="st4" width="1.2" height="91.5">
	</rect>
	
		<path id="path7670" inkscape:connector-curvature="0" inkscape:export-xdpi="64.30999755859375" inkscape:export-ydpi="64.30999755859375" class="st1" d="
		M185.5,177.3c-23.7,0-50.7,0.1-53.2,0.1c-1.9,0-2.7,1-2.8,2.5h0v0.1v0v0.1h0c0,1.5,1.1,2.5,2.8,2.5c3.3,0,50.2,0.2,74.8,0V180v-0.2
		v-2.5C201,177.3,193.4,177.3,185.5,177.3L185.5,177.3z"/>
	<text transform="matrix(1.0769 0 0 1 142.9597 125.6463)" class="st5 st6 st7">DOCS</text>
	
		<path id="path7670-3" inkscape:connector-curvature="0" inkscape:export-xdpi="64.30999755859375" inkscape:export-ydpi="64.30999755859375" sodipodi:nodetypes="cccccccc" class="st8" d="
		M185.2,177.7c-24,0-50.4,0.2-52.9,0.2c-1.5,0-2.2,1-2,2c0.1,0.9,0.3,1.5,2.1,1.6c3.3,0,49.4,0,73.5-0.2c-0.5-1.7-0.1-3.5-0.1-3.5
		C199.8,177.8,192.7,177.7,185.2,177.7L185.2,177.7z"/>
	
		<path id="path7699" inkscape:connector-curvature="0" inkscape:export-xdpi="64.30999755859375" inkscape:export-ydpi="64.30999755859375" sodipodi:nodetypes="cccccccc" class="st9" d="
		M185.3,177.7c-23.9,0-50.2,0.2-52.8,0.2c-2.9,0.1-2.2,2.4-2.2,2.3c0,0,0.4-1.5,2.4-1.5c3.3,0,49,0.1,73,0l0.1-0.9
		C199.8,177.8,192.8,177.7,185.3,177.7L185.3,177.7z"/>
	
		<path id="path7701" inkscape:connector-curvature="0" inkscape:export-xdpi="64.30999755859375" inkscape:export-ydpi="64.30999755859375" sodipodi:nodetypes="cccccc" class="st10" d="
		M139.6,87.5c0.6,36-6.6,88,67.3,88l0.1,1.7h-69.8v-90L139.6,87.5z"/>
</g>
</svg>
