<?xml version="1.0" encoding="UTF-8" standalone="no"?>
<!-- Created with Inkscape (http://www.inkscape.org/) -->

<svg
   xmlns:osb="http://www.openswatchbook.org/uri/2009/osb"
   xmlns:dc="http://purl.org/dc/elements/1.1/"
   xmlns:cc="http://creativecommons.org/ns#"
   xmlns:rdf="http://www.w3.org/1999/02/22-rdf-syntax-ns#"
   xmlns:svg="http://www.w3.org/2000/svg"
   xmlns="http://www.w3.org/2000/svg"
   xmlns:xlink="http://www.w3.org/1999/xlink"
   xmlns:sodipodi="http://sodipodi.sourceforge.net/DTD/sodipodi-0.dtd"
   xmlns:inkscape="http://www.inkscape.org/namespaces/inkscape"
   width="220"
   height="268"
   viewBox="0 0 58.208336 70.908332"
   version="1.1"
   id="svg8"
   inkscape:version="0.92.3 (2405546, 2018-03-11)"
   sodipodi:docname="ghost-poof.svg"
   inkscape:export-filename="/home/mclayton/projects/engage/src/client/images/ghost-poof.png"
   inkscape:export-xdpi="96"
   inkscape:export-ydpi="96">
  <sodipodi:namedview
     id="base"
     pagecolor="#252142"
     bordercolor="#666666"
     borderopacity="1.0"
     inkscape:pageopacity="0"
     inkscape:pageshadow="2"
     inkscape:zoom="2.8284273"
     inkscape:cx="114.4763"
     inkscape:cy="89.898988"
     inkscape:document-units="mm"
     inkscape:current-layer="layer1"
     showgrid="true"
     inkscape:window-width="1920"
     inkscape:window-height="1080"
     inkscape:window-x="0"
     inkscape:window-y="0"
     inkscape:window-maximized="1"
     fit-margin-top="0"
     fit-margin-left="0"
     fit-margin-right="0"
     fit-margin-bottom="0"
     inkscape:snap-to-guides="false"
     inkscape:snap-grids="true"
     inkscape:snap-page="false"
     inkscape:snap-global="true"
     units="px"
     inkscape:snap-bbox="true"
     inkscape:bbox-nodes="true">
    <inkscape:grid
       id="grid4546"
       type="xygrid"
       originx="0"
       originy="0"
       spacingx="11.641667"
       spacingy="11.641667"
       color="#fcff3f"
       opacity="0.1254902"
       empcolor="#fff53f"
       empopacity="0.25098039" />
  </sodipodi:namedview>
  <defs
     id="defs2">
    <linearGradient
       id="linearGradient4558"
       osb:paint="solid">
      <stop
         style="stop-color:#000000;stop-opacity:1;"
         offset="0"
         id="stop4556" />
    </linearGradient>
    <linearGradient
       id="linearGradient4544"
       osb:paint="solid">
      <stop
         style="stop-color:#cc0000;stop-opacity:1;"
         offset="0"
         id="stop4542" />
    </linearGradient>
    <linearGradient
       inkscape:collect="always"
       id="linearGradient4643">
      <stop
         style="stop-color:#cc0000;stop-opacity:1"
         offset="0"
         id="stop4639" />
      <stop
         style="stop-color:#a30000;stop-opacity:1"
         offset="1"
         id="stop4641" />
    </linearGradient>
    <linearGradient
       id="linearGradient4914">
      <stop
         style="stop-color:#000000;stop-opacity:1;"
         offset="0"
         id="stop4912" />
    </linearGradient>
    <linearGradient
       id="linearGradient4812">
      <stop
         style="stop-color:#000000;stop-opacity:1;"
         offset="0"
         id="stop4810" />
    </linearGradient>
    <linearGradient
       id="linearGradient4571">
      <stop
         style="stop-color:#000000;stop-opacity:1;"
         offset="0"
         id="stop4569" />
    </linearGradient>
    <linearGradient
       id="linearGradient4556">
      <stop
         style="stop-color:#000000;stop-opacity:1;"
         offset="0"
         id="stop4554" />
    </linearGradient>
    <linearGradient
       id="linearGradient4543">
      <stop
         style="stop-color:#000000;stop-opacity:1;"
         offset="0"
         id="stop4541" />
    </linearGradient>
    <linearGradient
       id="linearGradient4535">
      <stop
         style="stop-color:#000000;stop-opacity:1;"
         offset="0"
         id="stop4533" />
    </linearGradient>
    <linearGradient
       id="linearGradient5069">
      <stop
         style="stop-color:#000000;stop-opacity:1;"
         offset="0"
         id="stop5067" />
    </linearGradient>
    <linearGradient
       id="linearGradient5043">
      <stop
         style="stop-color:#000000;stop-opacity:1;"
         offset="0"
         id="stop5041" />
    </linearGradient>
    <linearGradient
       id="linearGradient4640">
      <stop
         id="stop4638"
         offset="0"
         style="stop-color:#000000;stop-opacity:1;" />
    </linearGradient>
    <linearGradient
       id="linearGradient4628">
      <stop
         id="stop4626"
         offset="0"
         style="stop-color:#000000;stop-opacity:1;" />
    </linearGradient>
    <linearGradient
       id="linearGradient4568">
      <stop
         id="stop4566"
         offset="0"
         style="stop-color:#000000;stop-opacity:1;" />
    </linearGradient>
    <linearGradient
       id="linearGradient4560">
      <stop
         id="stop4558"
         offset="0"
         style="stop-color:#000000;stop-opacity:1;" />
    </linearGradient>
    <linearGradient
       id="linearGradient4552">
      <stop
         id="stop4550"
         offset="0"
         style="stop-color:#000000;stop-opacity:1;" />
    </linearGradient>
    <linearGradient
       osb:paint="solid"
       id="linearGradient4542"
       gradientTransform="matrix(1.2692429e-8,0,0,0,147.23463,113.52)">
      <stop
         id="stop4540"
         offset="0"
         style="stop-color:#9adbe9;stop-opacity:1;" />
    </linearGradient>
    <linearGradient
       osb:paint="solid"
       id="linearGradient4534">
      <stop
         id="stop4532"
         offset="0"
         style="stop-color:#007c89;stop-opacity:1;" />
    </linearGradient>
    <linearGradient
       id="820000-5">
      <stop
         id="stop4522"
         offset="0"
         style="stop-color:#8200e0;stop-opacity:0.87058824;" />
    </linearGradient>
    <linearGradient
       osb:paint="solid"
       id="cc0000-7"
       gradientTransform="translate(0.52917)">
      <stop
         id="stop4514"
         offset="0"
         style="stop-color:#cc0000;stop-opacity:1;" />
    </linearGradient>
    <linearGradient
       osb:paint="solid"
       id="a30000-6">
      <stop
         id="stop4506"
         offset="0"
         style="stop-color:#a30000;stop-opacity:1;" />
    </linearGradient>
    <linearGradient
       inkscape:collect="always"
       xlink:href="#linearGradient4643"
       id="linearGradient4645"
       x1="141.63477"
       y1="106.26828"
       x2="141.81665"
       y2="106.23521"
       gradientUnits="userSpaceOnUse" />
    <linearGradient
       inkscape:collect="always"
       xlink:href="#a30000-6"
       id="linearGradient4561"
       x1="138.12709"
       y1="105.28184"
       x2="145.81938"
       y2="105.28184"
       gradientUnits="userSpaceOnUse" />
  </defs>
  <metadata
     id="metadata5">
    <rdf:RDF>
      <cc:Work
         rdf:about="">
        <dc:format>image/svg+xml</dc:format>
        <dc:type
           rdf:resource="http://purl.org/dc/dcmitype/StillImage" />
        <dc:title></dc:title>
      </cc:Work>
    </rdf:RDF>
  </metadata>
  <g
     id="layer1"
     inkscape:groupmode="layer"
     inkscape:label="Layer 1"
     transform="translate(-137.45082,-42.077735)">
    <path
       style="opacity:0.95;fill:#000000;fill-opacity:1;stroke:none;stroke-width:0.55500001;stroke-linecap:square;stroke-linejoin:miter;stroke-miterlimit:4;stroke-dasharray:none;stroke-opacity:1;paint-order:normal"
       d="m 166.55499,89.702734 a 5.820833,5.820833 0 0 0 -5.82084,5.820834 5.820833,5.820833 0 0 0 2.7125,4.913392 5.820833,5.820833 0 0 1 -1.96422,-4.352187 5.820833,5.820833 0 0 1 5.82083,-5.820834 5.820833,5.820833 0 0 1 3.10937,0.908474 5.820833,5.820833 0 0 0 -3.85764,-1.469679 z"
       id="path936"
       inkscape:connector-curvature="0" />
    <path
       id="path943"
       d="m 141.19554,101.72403 a 5.820833,5.820833 0 0 0 -3.36189,7.51412 5.820833,5.820833 0 0 0 4.28656,3.62277 5.820833,5.820833 0 0 1 -3.38733,-3.36536 5.820833,5.820833 0 0 1 3.36188,-7.51412 5.820833,5.820833 0 0 1 3.2289,-0.26029 5.820833,5.820833 0 0 0 -4.12812,0.003 z"
       style="opacity:0.95;fill:#cc0000;fill-opacity:1;stroke:none;stroke-width:0.55500001;stroke-linecap:square;stroke-linejoin:miter;stroke-miterlimit:4;stroke-dasharray:none;stroke-opacity:1;paint-order:normal"
       inkscape:connector-curvature="0" />
    <path
       inkscape:connector-curvature="0"
       style="opacity:0.95;fill:#cc0000;fill-opacity:1;stroke:none;stroke-width:0.55500001;stroke-linecap:square;stroke-linejoin:miter;stroke-miterlimit:4;stroke-dasharray:none;stroke-opacity:1;paint-order:normal"
       d="m 188.73677,112.88059 a 5.820833,5.820833 0 0 0 6.81843,-4.61229 5.820833,5.820833 0 0 0 -1.73225,-5.33839 5.820833,5.820833 0 0 1 1.10388,4.64555 5.820833,5.820833 0 0 1 -6.81842,4.6123 5.820833,5.820833 0 0 1 -2.88088,-1.48125 5.820833,5.820833 0 0 0 3.50925,2.17407 z"
       id="path945" />
    <path
       id="path947"
       d="m 160.81475,61.572631 a 5.820833,5.820833 0 0 0 6.71283,4.764688 5.820833,5.820833 0 0 0 4.39019,-3.49647 5.820833,5.820833 0 0 1 -3.96212,2.664829 5.820833,5.820833 0 0 1 -6.71282,-4.764677 5.820833,5.820833 0 0 1 0.37533,-3.217557 5.820833,5.820833 0 0 0 -0.80339,4.04919 z"
       style="opacity:0.95;fill:#cc0000;fill-opacity:1;stroke:none;stroke-width:0.55500001;stroke-linecap:square;stroke-linejoin:miter;stroke-miterlimit:4;stroke-dasharray:none;stroke-opacity:1;paint-order:normal"
       inkscape:connector-curvature="0" />
    <path
       inkscape:connector-curvature="0"
       style="opacity:0.95;fill:#cc0000;fill-opacity:1;stroke:none;stroke-width:0.46267766;stroke-linecap:square;stroke-linejoin:miter;stroke-miterlimit:4;stroke-dasharray:none;stroke-opacity:1;paint-order:normal"
       d="m 152.21429,78.377599 a 4.8525573,4.8525573 0 0 0 -2.80265,6.264171 4.8525573,4.8525573 0 0 0 3.5735,3.020137 4.8525573,4.8525573 0 0 1 -2.82386,-2.805549 4.8525573,4.8525573 0 0 1 2.80265,-6.264168 4.8525573,4.8525573 0 0 1 2.69178,-0.216996 4.8525573,4.8525573 0 0 0 -3.44142,0.0024 z"
       id="path949" />
    <path
       id="path951"
       d="m 138.13487,57.864541 a 5.820833,5.820833 0 0 0 2.39899,7.874586 5.820833,5.820833 0 0 0 5.61179,-0.08275 5.820833,5.820833 0 0 1 -4.76459,-0.313629 5.820833,5.820833 0 0 1 -2.399,-7.874578 5.820833,5.820833 0 0 1 2.26419,-2.316676 5.820833,5.820833 0 0 0 -3.11137,2.713063 z"
       style="opacity:0.95;fill:#cc0000;fill-opacity:1;stroke:none;stroke-width:0.55500001;stroke-linecap:square;stroke-linejoin:miter;stroke-miterlimit:4;stroke-dasharray:none;stroke-opacity:1;paint-order:normal"
       inkscape:connector-curvature="0" />
    <path
       inkscape:connector-curvature="0"
       style="opacity:0.95;fill:#cc0000;fill-opacity:1;stroke:none;stroke-width:0.46876729;stroke-linecap:square;stroke-linejoin:miter;stroke-miterlimit:4;stroke-dasharray:none;stroke-opacity:1;paint-order:normal"
       d="m 195.43356,58.21504 a 4.9164253,4.9164253 0 0 0 -6.16777,-3.209532 4.9164253,4.9164253 0 0 0 -3.26844,3.433439 4.9164253,4.9164253 0 0 1 3.00653,-2.688097 4.9164253,4.9164253 0 0 1 6.16778,3.209523 4.9164253,4.9164253 0 0 1 0.0584,2.735437 4.9164253,4.9164253 0 0 0 0.20355,-3.480771 z"
       id="path953" />
    <path
       id="path955"
       d="m 180.10876,78.385004 a 5.820833,5.820833 0 0 0 -7.41164,3.582165 5.820833,5.820833 0 0 0 0.94532,5.532219 5.820833,5.820833 0 0 1 -0.42329,-4.756104 5.820833,5.820833 0 0 1 7.41163,-3.582167 5.820833,5.820833 0 0 1 2.6375,1.880731 5.820833,5.820833 0 0 0 -3.15953,-2.656832 z"
       style="opacity:0.95;fill:#cc0000;fill-opacity:1;stroke:none;stroke-width:0.55500001;stroke-linecap:square;stroke-linejoin:miter;stroke-miterlimit:4;stroke-dasharray:none;stroke-opacity:1;paint-order:normal"
       inkscape:connector-curvature="0" />
    <path
       inkscape:connector-curvature="0"
       style="opacity:0.95;fill:#cc0000;fill-opacity:1;stroke:none;stroke-width:0.55500001;stroke-linecap:square;stroke-linejoin:miter;stroke-miterlimit:4;stroke-dasharray:none;stroke-opacity:1;paint-order:normal"
       d="m 191.75042,78.385004 a 5.820833,5.820833 0 0 0 -7.41164,3.582165 5.820833,5.820833 0 0 0 0.94532,5.532219 5.820833,5.820833 0 0 1 -0.42329,-4.756104 5.820833,5.820833 0 0 1 7.41163,-3.582167 5.820833,5.820833 0 0 1 2.6375,1.880731 5.820833,5.820833 0 0 0 -3.15953,-2.656832 z"
       id="path957" />
    <path
       id="path959"
       d="m 191.75042,90.026671 a 5.820833,5.820833 0 0 0 -7.41164,3.582165 5.820833,5.820833 0 0 0 0.94532,5.532219 5.820833,5.820833 0 0 1 -0.42329,-4.756104 5.820833,5.820833 0 0 1 7.41163,-3.582167 5.820833,5.820833 0 0 1 2.6375,1.880731 5.820833,5.820833 0 0 0 -3.15953,-2.656832 z"
       style="opacity:0.95;fill:#000000;fill-opacity:1;stroke:none;stroke-width:0.55500001;stroke-linecap:square;stroke-linejoin:miter;stroke-miterlimit:4;stroke-dasharray:none;stroke-opacity:1;paint-order:normal"
       inkscape:connector-curvature="0" />
    <path
       inkscape:connector-curvature="0"
       style="opacity:0.95;fill:#000000;fill-opacity:1;stroke:none;stroke-width:0.55500001;stroke-linecap:square;stroke-linejoin:miter;stroke-miterlimit:4;stroke-dasharray:none;stroke-opacity:1;paint-order:normal"
       d="m 180.10876,90.026671 a 5.820833,5.820833 0 0 0 -7.41164,3.582165 5.820833,5.820833 0 0 0 0.94532,5.532219 5.820833,5.820833 0 0 1 -0.42329,-4.756104 5.820833,5.820833 0 0 1 7.41163,-3.582167 5.820833,5.820833 0 0 1 2.6375,1.880731 5.820833,5.820833 0 0 0 -3.15953,-2.656832 z"
       id="path961" />
    <path
       id="path963"
       d="m 180.10876,101.66834 a 5.820833,5.820833 0 0 0 -7.41164,3.58216 5.820833,5.820833 0 0 0 0.94532,5.53222 5.820833,5.820833 0 0 1 -0.42329,-4.7561 5.820833,5.820833 0 0 1 7.41163,-3.58217 5.820833,5.820833 0 0 1 2.6375,1.88073 5.820833,5.820833 0 0 0 -3.15953,-2.65683 z"
       style="opacity:0.95;fill:#cc0000;fill-opacity:1;stroke:none;stroke-width:0.55500001;stroke-linecap:square;stroke-linejoin:miter;stroke-miterlimit:4;stroke-dasharray:none;stroke-opacity:1;paint-order:normal"
       inkscape:connector-curvature="0" />
    <path
       inkscape:connector-curvature="0"
       style="opacity:0.95;fill:#cc0000;fill-opacity:1;stroke:none;stroke-width:0.55500001;stroke-linecap:square;stroke-linejoin:miter;stroke-miterlimit:4;stroke-dasharray:none;stroke-opacity:1;paint-order:normal"
       d="m 168.46709,101.66834 a 5.820833,5.820833 0 0 0 -7.41164,3.58216 5.820833,5.820833 0 0 0 0.94532,5.53222 5.820833,5.820833 0 0 1 -0.42329,-4.7561 5.820833,5.820833 0 0 1 7.41163,-3.58217 5.820833,5.820833 0 0 1 2.6375,1.88073 5.820833,5.820833 0 0 0 -3.15953,-2.65683 z"
       id="path965" />
    <path
       id="path967"
       d="m 156.82542,101.66834 a 5.820833,5.820833 0 0 0 -7.41164,3.58216 5.820833,5.820833 0 0 0 0.94532,5.53222 5.820833,5.820833 0 0 1 -0.42329,-4.7561 5.820833,5.820833 0 0 1 7.41163,-3.58217 5.820833,5.820833 0 0 1 2.6375,1.88073 5.820833,5.820833 0 0 0 -3.15953,-2.65683 z"
       style="opacity:0.95;fill:#cc0000;fill-opacity:1;stroke:none;stroke-width:0.55500001;stroke-linecap:square;stroke-linejoin:miter;stroke-miterlimit:4;stroke-dasharray:none;stroke-opacity:1;paint-order:normal"
       inkscape:connector-curvature="0" />
    <path
       inkscape:connector-curvature="0"
       style="opacity:0.95;fill:#000000;fill-opacity:1;stroke:none;stroke-width:0.55500001;stroke-linecap:square;stroke-linejoin:miter;stroke-miterlimit:4;stroke-dasharray:none;stroke-opacity:1;paint-order:normal"
       d="m 156.82542,90.026672 a 5.820833,5.820833 0 0 0 -7.41164,3.58216 5.820833,5.820833 0 0 0 0.94532,5.53222 5.820833,5.820833 0 0 1 -0.42329,-4.7561 5.820833,5.820833 0 0 1 7.41163,-3.58217 5.820833,5.820833 0 0 1 2.6375,1.88073 5.820833,5.820833 0 0 0 -3.15953,-2.65683 z"
       id="path969" />
    <path
       id="path971"
       d="m 145.18376,90.026672 a 5.820833,5.820833 0 0 0 -7.41164,3.58216 5.820833,5.820833 0 0 0 0.94532,5.53222 5.820833,5.820833 0 0 1 -0.42329,-4.7561 5.820833,5.820833 0 0 1 7.41163,-3.58217 5.820833,5.820833 0 0 1 2.6375,1.88073 5.820833,5.820833 0 0 0 -3.15953,-2.65683 z"
       style="opacity:0.95;fill:#000000;fill-opacity:1;stroke:none;stroke-width:0.55500001;stroke-linecap:square;stroke-linejoin:miter;stroke-miterlimit:4;stroke-dasharray:none;stroke-opacity:1;paint-order:normal"
       inkscape:connector-curvature="0" />
    <path
       inkscape:connector-curvature="0"
       style="opacity:0.95;fill:#500000;fill-opacity:1;stroke:none;stroke-width:0.55500001;stroke-linecap:square;stroke-linejoin:miter;stroke-miterlimit:4;stroke-dasharray:none;stroke-opacity:1;paint-order:normal"
       d="m 160.81475,73.214298 a 5.820833,5.820833 0 0 0 6.71283,4.764688 5.820833,5.820833 0 0 0 4.39019,-3.49647 5.820833,5.820833 0 0 1 -3.96212,2.664829 5.820833,5.820833 0 0 1 -6.71282,-4.764677 5.820833,5.820833 0 0 1 0.37533,-3.217557 5.820833,5.820833 0 0 0 -0.80339,4.04919 z"
       id="path973" />
    <path
       id="path975"
       d="m 172.45641,73.214298 a 5.820833,5.820833 0 0 0 6.71283,4.764688 5.820833,5.820833 0 0 0 4.39019,-3.49647 5.820833,5.820833 0 0 1 -3.96212,2.664829 5.820833,5.820833 0 0 1 -6.71282,-4.764677 5.820833,5.820833 0 0 1 0.37533,-3.217557 5.820833,5.820833 0 0 0 -0.80339,4.04919 z"
       style="opacity:0.95;fill:#500000;fill-opacity:1;stroke:none;stroke-width:0.55500001;stroke-linecap:square;stroke-linejoin:miter;stroke-miterlimit:4;stroke-dasharray:none;stroke-opacity:1;paint-order:normal"
       inkscape:connector-curvature="0" />
    <path
       inkscape:connector-curvature="0"
       style="opacity:0.95;fill:#cc0000;fill-opacity:1;stroke:none;stroke-width:0.55500001;stroke-linecap:square;stroke-linejoin:miter;stroke-miterlimit:4;stroke-dasharray:none;stroke-opacity:1;paint-order:normal"
       d="m 172.45641,61.572631 a 5.820833,5.820833 0 0 0 6.71283,4.764688 5.820833,5.820833 0 0 0 4.39019,-3.49647 5.820833,5.820833 0 0 1 -3.96212,2.664829 5.820833,5.820833 0 0 1 -6.71282,-4.764677 5.820833,5.820833 0 0 1 0.37533,-3.217557 5.820833,5.820833 0 0 0 -0.80339,4.04919 z"
       id="path977" />
    <path
       id="path979"
       d="m 184.09808,73.214298 a 5.820833,5.820833 0 0 0 6.71283,4.764688 5.820833,5.820833 0 0 0 4.39019,-3.49647 5.820833,5.820833 0 0 1 -3.96212,2.664829 5.820833,5.820833 0 0 1 -6.71282,-4.764677 5.820833,5.820833 0 0 1 0.37533,-3.217557 5.820833,5.820833 0 0 0 -0.80339,4.04919 z"
       style="opacity:0.95;fill:#500000;fill-opacity:1;stroke:none;stroke-width:0.55500001;stroke-linecap:square;stroke-linejoin:miter;stroke-miterlimit:4;stroke-dasharray:none;stroke-opacity:1;paint-order:normal"
       inkscape:connector-curvature="0" />
    <path
       inkscape:connector-curvature="0"
       style="opacity:0.95;fill:#cc0000;fill-opacity:1;stroke:none;stroke-width:0.55500001;stroke-linecap:square;stroke-linejoin:miter;stroke-miterlimit:4;stroke-dasharray:none;stroke-opacity:1;paint-order:normal"
       d="m 160.81475,84.855965 a 5.820833,5.820833 0 0 0 6.71283,4.764688 5.820833,5.820833 0 0 0 4.39019,-3.49647 5.820833,5.820833 0 0 1 -3.96212,2.664829 5.820833,5.820833 0 0 1 -6.71282,-4.764677 5.820833,5.820833 0 0 1 0.37533,-3.217557 5.820833,5.820833 0 0 0 -0.80339,4.04919 z"
       id="path981" />
    <path
       id="path983"
       d="m 149.17308,73.214298 a 5.820833,5.820833 0 0 0 6.71283,4.764688 5.820833,5.820833 0 0 0 4.39019,-3.49647 5.820833,5.820833 0 0 1 -3.96212,2.664829 5.820833,5.820833 0 0 1 -6.71282,-4.764677 5.820833,5.820833 0 0 1 0.37533,-3.217557 5.820833,5.820833 0 0 0 -0.80339,4.04919 z"
       style="opacity:0.95;fill:#500000;fill-opacity:1;stroke:none;stroke-width:0.55500001;stroke-linecap:square;stroke-linejoin:miter;stroke-miterlimit:4;stroke-dasharray:none;stroke-opacity:1;paint-order:normal"
       inkscape:connector-curvature="0" />
    <path
       inkscape:connector-curvature="0"
       style="opacity:0.95;fill:#cc0000;fill-opacity:1;stroke:none;stroke-width:0.55500001;stroke-linecap:square;stroke-linejoin:miter;stroke-miterlimit:4;stroke-dasharray:none;stroke-opacity:1;paint-order:normal"
       d="m 149.17308,61.572631 a 5.820833,5.820833 0 0 0 6.71283,4.764688 5.820833,5.820833 0 0 0 4.39019,-3.49647 5.820833,5.820833 0 0 1 -3.96212,2.664829 5.820833,5.820833 0 0 1 -6.71282,-4.764677 5.820833,5.820833 0 0 1 0.37533,-3.217557 5.820833,5.820833 0 0 0 -0.80339,4.04919 z"
       id="path985" />
    <path
       id="path987"
       d="m 137.53141,73.214298 a 5.820833,5.820833 0 0 0 6.71283,4.764688 5.820833,5.820833 0 0 0 4.39019,-3.49647 5.820833,5.820833 0 0 1 -3.96212,2.664829 5.820833,5.820833 0 0 1 -6.71282,-4.764677 5.820833,5.820833 0 0 1 0.37533,-3.217557 5.820833,5.820833 0 0 0 -0.80339,4.04919 z"
       style="opacity:0.95;fill:#500000;fill-opacity:1;stroke:none;stroke-width:0.55500001;stroke-linecap:square;stroke-linejoin:miter;stroke-miterlimit:4;stroke-dasharray:none;stroke-opacity:1;paint-order:normal"
       inkscape:connector-curvature="0" />
    <path
       inkscape:connector-curvature="0"
       style="opacity:0.95;fill:#cc0000;fill-opacity:1;stroke:none;stroke-width:0.55500001;stroke-linecap:square;stroke-linejoin:miter;stroke-miterlimit:4;stroke-dasharray:none;stroke-opacity:1;paint-order:normal"
       d="m 137.53141,84.855965 a 5.820833,5.820833 0 0 0 6.71283,4.764688 5.820833,5.820833 0 0 0 4.39019,-3.49647 5.820833,5.820833 0 0 1 -3.96212,2.664829 5.820833,5.820833 0 0 1 -6.71282,-4.764677 5.820833,5.820833 0 0 1 0.37533,-3.217557 5.820833,5.820833 0 0 0 -0.80339,4.04919 z"
       id="path989" />
  </g>
</svg>
