<?xml version="1.0" encoding="utf-8"?>
<!-- Generator: Adobe Illustrator 22.1.0, SVG Export Plug-In . SVG Version: 6.00 Build 0)  -->
<svg version="1.1"
	 id="svg8" inkscape:export-filename="/home/mclayton/workspace/engage/src/images/cve.png" inkscape:export-xdpi="1808.04" inkscape:export-ydpi="1808.04" inkscape:version="0.92.1 r" sodipodi:docname="search.svg" xmlns:cc="http://creativecommons.org/ns#" xmlns:dc="http://purl.org/dc/elements/1.1/" xmlns:inkscape="http://www.inkscape.org/namespaces/inkscape" xmlns:osb="http://www.openswatchbook.org/uri/2009/osb" xmlns:rdf="http://www.w3.org/1999/02/22-rdf-syntax-ns#" xmlns:sodipodi="http://sodipodi.sourceforge.net/DTD/sodipodi-0.dtd" xmlns:svg="http://www.w3.org/2000/svg"
	 xmlns="http://www.w3.org/2000/svg" xmlns:xlink="http://www.w3.org/1999/xlink" x="0px" y="0px" viewBox="0 0 174.2 118.9"
	 style="enable-background:new 0 0 174.2 118.9;" xml:space="preserve">
<style type="text/css">
	.st0{display:none;}
	.st1{display:inline;}
	.st2{fill:#B3B3B3;fill-opacity:0.1457;stroke:#C1C1C1;stroke-width:1.7026;stroke-linejoin:round;}
	.st3{fill:#C1C1C1;}
	.st4{fill:#C00000;}
	.st5{fill:#FFFFFF;fill-opacity:0.189;}
	.st6{fill:#A30000;}
	.st7{enable-background:new    ;}
	.st8{fill:#FFFFFF;}
	.st9{font-family:'ArialMT';}
	.st10{font-size:40px;}
	.st11{letter-spacing:3;}
	.st12{fill:#FFFFFF;stroke:#FFFFFF;stroke-width:0.5;stroke-miterlimit:10;}
	.st13{font-size:30px;}
	.st14{fill:#C87137;}
	.st15{fill:#B9662C;}
</style>
<sodipodi:namedview  bordercolor="#666666" borderopacity="1.0" fit-margin-bottom="0" fit-margin-left="0" fit-margin-right="0" fit-margin-top="0" id="base" inkscape:current-layer="layer1" inkscape:cx="-181.01256" inkscape:cy="161.63948" inkscape:document-units="mm" inkscape:pageopacity="0" inkscape:pageshadow="2" inkscape:snap-global="false" inkscape:snap-grids="true" inkscape:snap-page="true" inkscape:snap-to-guides="false" inkscape:window-height="724" inkscape:window-maximized="0" inkscape:window-width="1527" inkscape:window-x="45" inkscape:window-y="45" inkscape:zoom="0.99999999" pagecolor="#252142" showgrid="false">
	<inkscape:grid  id="grid4546" originx="-118.55344" originy="-172.21334" type="xygrid"></inkscape:grid>
</sodipodi:namedview>
<g id="layer1" transform="translate(-118.55343,-85.563457)" inkscape:groupmode="layer" inkscape:label="Layer 1" class="st0">
	<g id="g7135" transform="rotate(-20.070471,139.84205,109.0701)" class="st1">
		<path id="path7046" inkscape:connector-curvature="0" class="st2" d="M-216.4-25.3c11.1,19.2,4.5,43.8-14.7,54.8
			s-43.8,4.5-54.8-14.7C-297-4.4-290.4-28.9-271.2-40v0C-252-51.1-227.5-44.5-216.4-25.3C-216.4-25.3-216.4-25.3-216.4-25.3z"/>
		<g id="g7127">
			<path id="rect7050" inkscape:connector-curvature="0" class="st3" d="M-236.5,31.8l10.2-5.9l9.4,16.3l-10.2,5.9L-236.5,31.8z"/>
			<path id="rect7052" inkscape:connector-curvature="0" class="st4" d="M-219.2,35.8c-0.1,0-0.2,0.1-0.3,0.1l-2.4,1.4c0,0,0,0,0,0
				l-6.9,4c0,0,0,0,0,0l-2.4,1.4c-0.4,0.2-0.6,0.8-0.3,1.2l1.4,2.4l19.7,34c0,0,0,0,0,0l1,1.8c1,1.8,3.2,2.4,5,1.3l6.9-4
				c1.8-1,2.4-3.2,1.3-5L-217,38.7c0,0,0,0,0,0l-1.4-2.4C-218.6,35.9-218.9,35.8-219.2,35.8L-219.2,35.8z"/>
			<path id="circle7095" inkscape:connector-curvature="0" class="st5" d="M-251.7-39.2c-5.8,0.1-11.4,1.7-16.4,4.6
				c-16.5,9.5-22.1,30.6-12.6,47.1c0,0,0,0,0,0c1.3,2.1,2.7,4.1,4.4,6c-0.1-0.2-0.2-0.3-0.3-0.5c-9.5-16.5-3.9-37.6,12.6-47.1
				c0,0,0,0,0,0c14-8.1,31.8-5.3,42.7,6.7C-227.7-33.1-239.3-39.5-251.7-39.2L-251.7-39.2z"/>
			<path id="path7113" inkscape:connector-curvature="0" sodipodi:nodetypes="cccccccccc" class="st6" d="M-231.5,42.9
				c0.1-0.1,0.2-0.2,0.3-0.2c16.6,29.6,39.2,26.4,33.6,36.8l-6.9,4c-1.8,1-4,0.4-5-1.3l-20.7-35.8c0,0,0,0,0,0l-1.4-2.4
				C-231.7,43.5-231.7,43.2-231.5,42.9L-231.5,42.9z"/>
		</g>
	</g>
	<text transform="matrix(1 0 0 1 -309.1362 203.3207)" class="st9" style="display:inline;fill:#FFFFFF; font-size:26.3844px;">SEARCH</text>
</g>
<g id="layer1_2_" transform="translate(-118.55343,-85.563457)" inkscape:groupmode="layer" inkscape:label="Layer 1" class="st0">
	<g id="g7135_2_" transform="rotate(-20.070471,139.84205,109.0701)" class="st1">
		<path id="path7046_4_" inkscape:connector-curvature="0" class="st2" d="M49.4,70.5c11.1,19.2,4.5,43.8-14.7,54.8
			s-43.8,4.5-54.8-14.7s-4.5-43.8,14.7-54.8l0,0C13.8,44.7,38.3,51.3,49.4,70.5C49.4,70.5,49.4,70.5,49.4,70.5z"/>
		<g id="g7127_2_">
			<path id="rect7050_2_" inkscape:connector-curvature="0" class="st3" d="M29.2,127.6l10.2-5.9l9.4,16.3l-10.2,5.9L29.2,127.6z"/>
			<path id="rect7052_2_" inkscape:connector-curvature="0" class="st4" d="M46.5,131.6c-0.1,0-0.2,0.1-0.3,0.1l-2.4,1.4
				c0,0,0,0,0,0l-6.9,4c0,0,0,0,0,0l-2.4,1.4c-0.4,0.2-0.6,0.8-0.3,1.2l1.4,2.4l19.7,34c0,0,0,0,0,0l1,1.8c1,1.8,3.2,2.4,5,1.3
				l6.9-4c1.8-1,2.4-3.2,1.3-5l-20.7-35.8c0,0,0,0,0,0l-1.4-2.4C47.2,131.8,46.9,131.6,46.5,131.6L46.5,131.6z"/>
			<path id="circle7095_4_" inkscape:connector-curvature="0" class="st5" d="M14.1,56.6c-5.8,0.1-11.4,1.7-16.4,4.6
				c-16.5,9.5-22.1,30.6-12.6,47.1c0,0,0,0,0,0c1.3,2.1,2.7,4.1,4.4,6c-0.1-0.2-0.2-0.3-0.3-0.5c-9.5-16.5-3.9-37.6,12.6-47.1
				c0,0,0,0,0,0c14-8.1,31.8-5.3,42.7,6.7C38.1,62.7,26.5,56.3,14.1,56.6L14.1,56.6z"/>
			<path id="path7113_2_" inkscape:connector-curvature="0" sodipodi:nodetypes="cccccccccc" class="st6" d="M34.3,138.7
				c0.1-0.1,0.2-0.2,0.3-0.2c16.6,29.6,39.2,26.4,33.6,36.8l-6.9,4c-1.8,1-4,0.4-5-1.3l-20.7-35.8c0,0,0,0,0,0l-1.4-2.4
				C34,139.4,34.1,139,34.3,138.7L34.3,138.7z"/>
		</g>
	</g>
	<text transform="matrix(1 0 0 1 -26.6243 202.1215)" class="st9" style="display:inline;fill:#FFFFFF; font-size:26.3844px;">SEARCH</text>
</g>
<g id="layer1_3_" transform="translate(-118.55343,-85.563457)" inkscape:groupmode="layer" inkscape:label="Layer 1">
	<text transform="matrix(1 0 0 1 136.41 151.4143)" class="st7"><tspan x="0" y="0" class="st8 st9 st10 st11">SE</tspan><tspan x="61.3" y="-2" class="st12 st9 st13 st11">ARCH</tspan></text>
	<g id="g7135_3_" transform="rotate(-20.070471,139.84205,109.0701)">
		<path id="path7046_6_" inkscape:connector-curvature="0" class="st2" d="M185.2,120.7c11.1,19.2,4.5,43.8-14.7,54.8
			c-19.2,11.1-43.8,4.5-54.8-14.7c-11.1-19.2-4.5-43.8,14.7-54.8l0,0C149.6,94.9,174.2,101.5,185.2,120.7
			C185.2,120.7,185.2,120.7,185.2,120.7z"/>
		<g id="g7127_3_">
			<path id="rect7050_3_" inkscape:connector-curvature="0" class="st3" d="M165.1,177.8l10.2-5.9l9.4,16.3l-10.2,5.9L165.1,177.8z"
				/>
			<path id="rect7052_3_" inkscape:connector-curvature="0" class="st4" d="M182.4,181.8c-0.1,0-0.2,0.1-0.3,0.1l-2.4,1.4
				c0,0,0,0,0,0l-6.9,4c0,0,0,0,0,0l-2.4,1.4c-0.4,0.2-0.6,0.8-0.3,1.2l1.4,2.4l19.7,34c0,0,0,0,0,0l1,1.8c1,1.8,3.2,2.4,5,1.3
				l6.9-4c1.8-1,2.4-3.2,1.3-5l-20.7-35.8c0,0,0,0,0,0l-1.4-2.4C183.1,181.9,182.7,181.8,182.4,181.8L182.4,181.8z"/>
			<path id="circle7095_6_" inkscape:connector-curvature="0" class="st5" d="M149.9,106.8c-5.8,0.1-11.4,1.7-16.4,4.6
				c-16.5,9.5-22.1,30.6-12.6,47.1c0,0,0,0,0,0c1.3,2.1,2.7,4.1,4.4,6c-0.1-0.2-0.2-0.3-0.3-0.5c-9.5-16.5-3.9-37.6,12.6-47.1
				c0,0,0,0,0,0c14-8.1,31.8-5.3,42.7,6.7C173.9,112.9,162.3,106.5,149.9,106.8L149.9,106.8z"/>
			<path id="path7113_3_" inkscape:connector-curvature="0" sodipodi:nodetypes="cccccccccc" class="st6" d="M170.1,188.9
				c0.1-0.1,0.2-0.2,0.3-0.2c16.6,29.6,39.2,26.4,33.6,36.8l-6.9,4c-1.8,1-4,0.4-5-1.3l-20.7-35.8c0,0,0,0,0,0l-1.4-2.4
				C169.9,189.5,169.9,189.2,170.1,188.9L170.1,188.9z"/>
		</g>
	</g>
</g>
<g id="layer1_1_" transform="translate(-118.55343,-85.563457)" inkscape:groupmode="layer" inkscape:label="Layer 1" class="st0">
	<g id="g7135_1_" transform="rotate(-20.070471,139.84205,109.0701)" class="st1">
		<path id="path7046_1_" inkscape:connector-curvature="0" class="st2" d="M-80.2,24.4c11.1,19.2,4.5,43.8-14.7,54.8
			s-43.8,4.5-54.8-14.7s-4.5-43.8,14.7-54.8l0,0C-115.8-1.3-91.3,5.2-80.2,24.4C-80.2,24.4-80.2,24.4-80.2,24.4z"/>
		<g id="g7127_1_">
			<path id="rect7050_1_" inkscape:connector-curvature="0" class="st3" d="M-100.3,81.5l10.2-5.9l9.4,16.3l-10.2,5.9L-100.3,81.5z"
				/>
			<path id="rect7052_1_" inkscape:connector-curvature="0" class="st14" d="M-83.1,85.6c-0.1,0-0.2,0.1-0.3,0.1l-2.4,1.4
				c0,0,0,0,0,0l-6.9,4c0,0,0,0,0,0l-2.4,1.4c-0.4,0.2-0.6,0.8-0.3,1.2L-94,96l19.7,34c0,0,0,0,0,0l1,1.8c1,1.8,3.2,2.4,5,1.3l6.9-4
				c1.8-1,2.4-3.2,1.3-5l-20.7-35.8c0,0,0,0,0,0l-1.4-2.4C-82.4,85.7-82.7,85.5-83.1,85.6L-83.1,85.6z"/>
			<path id="circle7095_1_" inkscape:connector-curvature="0" class="st5" d="M-115.5,10.5c-5.8,0.1-11.4,1.7-16.4,4.6
				c-16.5,9.5-22.1,30.6-12.6,47.1c0,0,0,0,0,0c1.3,2.1,2.7,4.1,4.4,6c-0.1-0.2-0.2-0.3-0.3-0.5c-9.5-16.5-3.9-37.6,12.6-47.1
				c0,0,0,0,0,0c14-8.1,31.8-5.3,42.7,6.7C-91.5,16.6-103.1,10.2-115.5,10.5L-115.5,10.5z"/>
			<path id="path7113_1_" inkscape:connector-curvature="0" sodipodi:nodetypes="cccccccccc" class="st15" d="M-95.3,92.7
				c0.1-0.1,0.2-0.2,0.3-0.2c16.6,29.6,39.2,26.4,33.6,36.8l-6.9,4c-1.8,1-4,0.4-5-1.3L-94,96c0,0,0,0,0,0l-1.4-2.4
				C-95.6,93.3-95.5,92.9-95.3,92.7L-95.3,92.7z"/>
		</g>
	</g>
	<text transform="matrix(1 0 0 1 -164.1362 203.3207)" class="st9" style="display:inline;fill:#FFFFFF; font-size:26.3844px;">SEARCH</text>
</g>
</svg>
