<?xml version="1.0" encoding="utf-8"?>
<!-- Generator: Adobe Illustrator 21.0.2, SVG Export Plug-In . SVG Version: 6.00 Build 0)  -->
<svg version="1.1" xmlns="http://www.w3.org/2000/svg" xmlns:xlink="http://www.w3.org/1999/xlink" x="0px" y="0px"
	 viewBox="0 0 80 100" style="enable-background:new 0 0 80 100;" xml:space="preserve">
<style type="text/css">
	.st0{display:none;}
	.st1{display:inline;fill:#262626;}
	.st2{fill:#00AAD4;}
	.st3{fill:#7FC3D4;}
	.st4{fill:#0099BF;}
	.st5{fill:#283033;}
	.st6{fill:#C0D0DA;}
	.st7{fill:#0E95BC;}
	.st8{fill:#0E89AD;}
	.st9{fill:#2A3F4B;}
	.st10{fill:#025163;}
	.st11{fill:#96B1C1;}
	.st12{fill:#1786AC;}
	.st13{fill:#177EA1;}
	.st14{fill:#2B4A5C;}
	.st15{fill:#FFFFFF;}
	.st16{font-family:'Interstate-Black';}
	.st17{font-size:13.3px;}
	.st18{letter-spacing:-1;}
	.st19{font-size:13.3867px;}
</style>
<g id="Layer_2" class="st0">
	<rect x="-61.1" y="-9.1" class="st1" width="203.7" height="116.9"/>
</g>
<g id="Container_Catalog_1_" inkscape:export-filename="/home/mclayton/workspace/engage/src/images/cve.png" inkscape:export-xdpi="1808.04" inkscape:export-ydpi="1808.04" inkscape:version="0.92.1 r" sodipodi:docname="container-catalog.svg" xmlns:cc="http://creativecommons.org/ns#" xmlns:dc="http://purl.org/dc/elements/1.1/" xmlns:inkscape="http://www.inkscape.org/namespaces/inkscape" xmlns:osb="http://www.openswatchbook.org/uri/2009/osb" xmlns:rdf="http://www.w3.org/1999/02/22-rdf-syntax-ns#" xmlns:sodipodi="http://sodipodi.sourceforge.net/DTD/sodipodi-0.dtd" xmlns:svg="http://www.w3.org/2000/svg">
	<g>
		<path class="st2" d="M0.4,51.8c-0.1,0-0.2,0.1-0.2,0.2v2.1c0,0.2,1.5,1.9,1.5,2.2v29.3c0,0.3-1.5,2-1.5,2.2v2.1
			c0,0.1,0.1,0.2,0.2,0.2h1.3h0.3h75.8h1.3c0.1,0,0.2-0.1,0.2-0.2v-2.1c0-0.2-1.5-1.9-1.5-2.2V56.3c0-0.3,1.5-2,1.5-2.2V52
			c0-0.1-0.1-0.2-0.2-0.2h-1.3H2.1H0.4"/>
		<path class="st3" d="M77.9,85.6L77.9,85.6c0,0.3,1.5,2,1.5,2.2v2.1l0,0v-2.1C79.4,87.6,77.9,85.9,77.9,85.6"/>
		<path class="st4" d="M77.9,85.6v0.3H21.1C15.8,87.1,9,87.8,0.2,87.8l0,0v2.1c0,0.1,0.1,0.2,0.2,0.2h1.3h0.3h75.8h1.3
			c0.1,0,0.2-0.1,0.2-0.2v-2.1C79.4,87.6,77.9,85.9,77.9,85.6 M77.9,56.5h-7.4c-33.5,2.4-21.1,22-47.3,28.9h54.7V56.5"/>
		<polyline class="st5" points="1.7,85.7 77.9,85.7 1.7,85.7 		"/>
		<path class="st6" d="M1.7,85.7L1.7,85.7L1.7,85.7C1.7,85.7,1.7,85.7,1.7,85.7 M1.7,85.4L1.7,85.4l0,0.2h0c0,0,0,0,0-0.1V85.4"/>
		<path class="st7" d="M22.2,85.7H1.7c0,0,0,0.1,0,0.1v0.2h19.4C21.5,85.8,21.8,85.7,22.2,85.7 M23.2,85.4H1.7v0.2c0,0,0,0,0,0.1
			h20.5C22.5,85.6,22.9,85.5,23.2,85.4"/>
		<path class="st8" d="M77.9,85.4H23.2c-0.3,0.1-0.7,0.2-1,0.2h55.7H22.2c-0.4,0.1-0.7,0.2-1.1,0.3h56.8v-0.3l0,0V85.4"/>
		<polyline class="st9" points="77.9,85.7 22.2,85.7 1.7,85.7 1.7,85.7 1.7,85.7 22.2,85.7 77.9,85.7 		"/>
		<path class="st10" d="M33,59.1h0.2c0.5,0,0.9,0.4,0.9,1v21.8c0,0.5-0.4,1-0.9,1H33c-0.5,0-0.9-0.4-0.9-1V60
			C32,59.5,32.4,59.1,33,59.1z"/>
		<path class="st10" d="M26.3,59.1h0.2c0.5,0,0.9,0.4,0.9,1v21.8c0,0.5-0.4,1-0.9,1h-0.2c-0.5,0-0.9-0.4-0.9-1V60
			C25.4,59.5,25.8,59.1,26.3,59.1z"/>
		<path class="st10" d="M19.6,59.1h0.2c0.5,0,0.9,0.4,0.9,1v21.8c0,0.5-0.4,1-0.9,1h-0.2c-0.5,0-0.9-0.4-0.9-1V60
			C18.7,59.5,19.1,59.1,19.6,59.1z"/>
		<path class="st10" d="M12.9,59.1h0.2c0.5,0,0.9,0.4,0.9,1v21.8c0,0.5-0.4,1-0.9,1h-0.2c-0.5,0-0.9-0.4-0.9-1V60
			C12,59.5,12.4,59.1,12.9,59.1z"/>
		<path class="st10" d="M6.3,59.1h0.2c0.5,0,0.9,0.4,0.9,1v21.8c0,0.5-0.4,1-0.9,1H6.3c-0.5,0-0.9-0.4-0.9-1V60
			C5.3,59.5,5.8,59.1,6.3,59.1z"/>
		<path class="st10" d="M66.3,59.1h0.2c0.5,0,0.9,0.4,0.9,1v21.8c0,0.5-0.4,1-0.9,1h-0.2c-0.5,0-0.9-0.4-0.9-1V60
			C65.4,59.5,65.8,59.1,66.3,59.1z"/>
		<path class="st10" d="M59.6,59.1h0.2c0.5,0,0.9,0.4,0.9,1v21.8c0,0.5-0.4,1-0.9,1h-0.2c-0.5,0-0.9-0.4-0.9-1V60
			C58.7,59.5,59.1,59.1,59.6,59.1z"/>
		<path class="st10" d="M53,59.1h0.2c0.5,0,0.9,0.4,0.9,1v21.8c0,0.5-0.4,1-0.9,1H53c-0.5,0-0.9-0.4-0.9-1V60
			C52,59.5,52.5,59.1,53,59.1z"/>
		<path class="st10" d="M46.3,59.1h0.2c0.5,0,0.9,0.4,0.9,1v21.8c0,0.5-0.4,1-0.9,1h-0.2c-0.5,0-0.9-0.4-0.9-1V60
			C45.4,59.5,45.8,59.1,46.3,59.1z"/>
		<path class="st10" d="M39.6,59.1h0.2c0.5,0,0.9,0.4,0.9,1v21.8c0,0.5-0.4,1-0.9,1h-0.2c-0.5,0-0.9-0.4-0.9-1V60
			C38.7,59.5,39.1,59.1,39.6,59.1z"/>
		<path class="st10" d="M73,59.1h0.2c0.5,0,0.9,0.4,0.9,1v21.8c0,0.5-0.4,1-0.9,1H73c-0.5,0-0.9-0.4-0.9-1V60
			C72.1,59.5,72.5,59.1,73,59.1z"/>
		<polyline class="st5" points="1.7,56.3 77.9,56.3 1.7,56.3 		"/>
		<path class="st11" d="M1.7,56.3L1.7,56.3l0,0.3h0V56.3L1.7,56.3 M1.7,56.1v0.1h0C1.7,56.2,1.7,56.2,1.7,56.1"/>
		<path class="st12" d="M77.9,56H1.7v0.1c0,0.1,0,0.1,0,0.1h76.1H1.7l0,0v0.3h68.7c2.3-0.2,4.7-0.3,7.4-0.3l0,0l0,0V56"/>
		<path class="st13" d="M77.9,56.3c-2.7,0-5.2,0.1-7.4,0.3h7.4V56.3L77.9,56.3"/>
		<polyline class="st14" points="77.9,56.3 1.7,56.3 1.7,56.3 1.7,56.3 77.9,56.3 		"/>
		<text transform="matrix(1 0 0 1 8.4177 45.0456)"><tspan x="0" y="0" class="st15 st16 st17">C</tspan><tspan x="9" y="0" class="st15 st16 st17 st18">A</tspan><tspan x="17.9" y="0" class="st15 st16 st17 st18">T</tspan><tspan x="25.5" y="0" class="st15 st16 st17">A</tspan><tspan x="35.7" y="0" class="st15 st16 st17">L</tspan><tspan x="43.5" y="0" class="st15 st16 st17">OG</tspan></text>
		<text transform="matrix(1 0 0 1 -7.322902e-04 28.1887)"><tspan x="0" y="0" class="st15 st16 st19">C</tspan><tspan x="8.9" y="0" class="st15 st16 st19">ON</tspan><tspan x="28.8" y="0" class="st15 st16 st19 st18">T</tspan><tspan x="36.5" y="0" class="st15 st16 st19">AINER</tspan></text>
	</g>
</g>
</svg>
