<?xml version="1.0" encoding="utf-8"?>
<!-- Generator: Adobe Illustrator 21.0.2, SVG Export Plug-In . SVG Version: 6.00 Build 0)  -->
<svg version="1.1"
	 id="svg8" inkscape:export-filename="/home/mclayton/workspace/engage/src/images/cve.png" inkscape:export-xdpi="1808.04" inkscape:export-ydpi="1808.04" inkscape:version="0.92.1 r" sodipodi:docname="documentation.svg" xmlns:cc="http://creativecommons.org/ns#" xmlns:dc="http://purl.org/dc/elements/1.1/" xmlns:inkscape="http://www.inkscape.org/namespaces/inkscape" xmlns:osb="http://www.openswatchbook.org/uri/2009/osb" xmlns:rdf="http://www.w3.org/1999/02/22-rdf-syntax-ns#" xmlns:sodipodi="http://sodipodi.sourceforge.net/DTD/sodipodi-0.dtd" xmlns:svg="http://www.w3.org/2000/svg"
	 xmlns="http://www.w3.org/2000/svg" xmlns:xlink="http://www.w3.org/1999/xlink" x="0px" y="0px" viewBox="0 0 82 100"
	 style="enable-background:new 0 0 82 100;" xml:space="preserve">
<style type="text/css">
	.st0{fill:url(#path7659_1_);}
	.st1{fill:#AD9976;stroke:#6C5B3D;stroke-width:0.4592;stroke-linecap:round;stroke-linejoin:round;}
	.st2{fill:#E5CFAE;stroke:#5B3B3B;stroke-width:0.4592;stroke-linecap:round;stroke-linejoin:round;}
	.st3{fill:#330000;stroke:#6C5B3D;stroke-width:0.4592;stroke-linecap:round;stroke-linejoin:round;}
	.st4{fill:#422A2A;}
	.st5{fill:#2D1010;}
	.st6{font-family:'Interstate-Bold';}
	.st7{font-size:21.3929px;}
	.st8{fill:#F1EDE7;}
	.st9{fill-opacity:0.2;}
	.st10{fill-opacity:0.15;}
</style>
<sodipodi:namedview  bordercolor="#666666" borderopacity="1.0" fit-margin-bottom="0" fit-margin-left="0" fit-margin-right="0" fit-margin-top="0" id="base" inkscape:current-layer="layer1" inkscape:cx="71.537464" inkscape:cy="46.966626" inkscape:document-units="mm" inkscape:object-nodes="false" inkscape:object-paths="false" inkscape:pageopacity="0" inkscape:pageshadow="2" inkscape:snap-bbox="true" inkscape:snap-grids="true" inkscape:snap-intersection-paths="false" inkscape:snap-nodes="false" inkscape:snap-object-midpoints="false" inkscape:snap-others="true" inkscape:snap-page="true" inkscape:snap-to-guides="true" inkscape:window-height="1080" inkscape:window-maximized="1" inkscape:window-width="1920" inkscape:window-x="0" inkscape:window-y="0" inkscape:zoom="4" pagecolor="#252142" showgrid="false">
	<inkscape:grid  id="grid4546" originx="-123.58022" originy="-166.39294" type="xygrid"></inkscape:grid>
</sodipodi:namedview>
<defs>
	
	
		<inkscape:path-effect  center_point="141.55207,107.82272" discard_orig_path="false" effect="mirror_symmetry" end_point="168.58758,107.82272" fuse_paths="false" id="path-effect5646" is_visible="true" mode="free" oposite_fuse="false" start_point="114.51656,107.82272">
		</inkscape:path-effect>
</defs>
<g id="Documentation" transform="translate(-123.58021,-84.57551)" inkscape:groupmode="layer" inkscape:label="Layer 1">
	
		<linearGradient id="path7659_1_" gradientUnits="userSpaceOnUse" x1="-825.1981" y1="1226.5701" x2="-824.4341" y2="1226.5701" gradientTransform="matrix(101.9205 0 0 -125.1115 84230.2031 153592.9375)">
		<stop  offset="0" style="stop-color:#000000"/>
		<stop  offset="1" style="stop-color:#000000"/>
	</linearGradient>
	
		<path id="path7659" inkscape:connector-curvature="0" inkscape:export-xdpi="64.30999755859375" inkscape:export-ydpi="64.30999755859375" sodipodi:nodetypes="ccccccc" class="st0" d="
		M128.3,87.2c1.7,0,50-0.1,75.1-0.1v95.5c-24.6,0.2-71.7,0-75.1,0c-1.7,0-2.8-1.1-2.8-2.7V89.8C125.6,88.2,126.7,87.2,128.3,87.2
		L128.3,87.2z"/>
	
		<path id="path7657" inkscape:connector-curvature="0" inkscape:export-xdpi="64.30999755859375" inkscape:export-ydpi="64.30999755859375" sodipodi:nodetypes="ccccccc" class="st1" d="
		M127.3,88.8c1.7,0,51.6-0.1,77.4-0.1v95.2c-25.4,0.2-73.9,0-77.4,0c-1.7,0-2.9-1.1-2.9-2.6V91.3C124.4,89.8,125.6,88.8,127.3,88.8
		L127.3,88.8z"/>
	
		<path id="rect5660" inkscape:connector-curvature="0" inkscape:export-xdpi="64.30999755859375" inkscape:export-ydpi="64.30999755859375" sodipodi:nodetypes="ccccccc" class="st2" d="
		M127.3,85.3c1.7,0,51.6-0.1,77.4-0.1v95.2c-25.4,0.2-73.9,0-77.4,0c-1.7,0-2.9-1.1-2.9-2.6V87.9C124.4,86.3,125.6,85.3,127.3,85.3
		L127.3,85.3z"/>
	
		<path id="path7661" inkscape:connector-curvature="0" inkscape:export-xdpi="64.30999755859375" inkscape:export-ydpi="64.30999755859375" sodipodi:nodetypes="ccsccc" class="st3" d="
		M132.5,85.3c-0.8,0-5,0-5.2,0c-1.7,0-2.9,1-2.9,2.6v93.2c3.3,0.1,5-0.7,8-0.7V85.3z"/>
	
		<rect id="rect7632" x="131.8" y="85.5" inkscape:export-xdpi="64.30999755859375" inkscape:export-ydpi="64.30999755859375" class="st4" width="1.3" height="94.7">
	</rect>
	
		<path id="path7670" inkscape:connector-curvature="0" inkscape:export-xdpi="64.30999755859375" inkscape:export-ydpi="64.30999755859375" class="st1" d="
		M182.4,178.4c-24.5,0-52.5,0.1-55.1,0.1c-2,0-2.8,1-2.9,2.6h0v0.1v0.1v0.1h0c0,1.6,1.2,2.6,2.9,2.6c3.5,0,52,0.2,77.4,0v-2.6v-0.2
		v-2.6C198.4,178.5,190.6,178.4,182.4,178.4L182.4,178.4z"/>
	<text transform="matrix(1.0769 0 0 1 138.3576 122.9405)" class="st5 st6 st7">DOCS</text>
	
		<path id="path7670-3" inkscape:connector-curvature="0" inkscape:export-xdpi="64.30999755859375" inkscape:export-ydpi="64.30999755859375" sodipodi:nodetypes="cccccccc" class="st8" d="
		M182.1,178.9c-24.8,0-52.2,0.2-54.8,0.2c-1.6,0.1-2.2,1-2.1,2.1c0.1,0.9,0.4,1.5,2.1,1.6c3.4,0,51.2,0,76.1-0.2
		c-0.5-1.8-0.1-3.6-0.1-3.6C197.2,179,189.9,178.9,182.1,178.9L182.1,178.9z"/>
	
		<path id="path7699" inkscape:connector-curvature="0" inkscape:export-xdpi="64.30999755859375" inkscape:export-ydpi="64.30999755859375" sodipodi:nodetypes="cccccccc" class="st9" d="
		M182.2,178.9c-24.7,0-52,0.2-54.6,0.2c-3,0.1-2.2,2.5-2.3,2.4c0,0,0.4-1.5,2.4-1.5c3.4,0,50.7,0.1,75.5,0l0.1-1
		C197.2,179,189.9,178.9,182.2,178.9L182.2,178.9z"/>
	
		<path id="path7701" inkscape:connector-curvature="0" inkscape:export-xdpi="64.30999755859375" inkscape:export-ydpi="64.30999755859375" sodipodi:nodetypes="cccccc" class="st10" d="
		M134.9,85.5c0.6,37.3-6.8,91.1,69.6,91.1l0.1,1.7h-72.2V85.2L134.9,85.5z"/>
</g>
</svg>
