<?xml version="1.0" encoding="utf-8"?>
<!-- Generator: Adobe Illustrator 21.0.2, SVG Export Plug-In . SVG Version: 6.00 Build 0)  -->
<svg version="1.1" id="Logo" xmlns="http://www.w3.org/2000/svg" xmlns:xlink="http://www.w3.org/1999/xlink" x="0px" y="0px"
	 viewBox="0 0 278.9 144.5" style="enable-background:new 0 0 278.9 144.5;" xml:space="preserve">
<style type="text/css">
	.st0{opacity:0.2;}
	.st1{fill:#A8D6E4;}
	.st2{fill:#00ABCF;}
	.st3{fill:#009ABB;}
	.st4{fill:#008CAA;}
	.st5{fill:#007E98;}
	.st6{fill:#006E84;}
	.st7{fill:#005B70;}
</style>
<title>Engage Logo</title>
<g id="outer_circle" class="st0">
	<path class="st1" d="M137.6,144.5c-1.3,0-2.7,0-4-0.1c-31.3-1.7-58-23.4-65.8-53.8c-0.1-0.4,0.2-0.8,0.6-0.9
		c0.4-0.1,0.8,0.1,0.9,0.5c10,37.8,48.7,60.4,86.5,50.4c3.8-1,7.4-2.3,11-3.9c0.4-0.2,0.8,0,1,0.4s0,0.8-0.4,1
		C158,142.3,147.9,144.5,137.6,144.5z"/>
	<path class="st1" d="M178.6,131.6c-0.4,0-0.7-0.3-0.7-0.8c0-0.2,0.1-0.5,0.3-0.6c32-22.4,39.9-66.5,17.5-98.5
		c-1.4-2-2.9-3.9-4.5-5.8c-0.3-0.3-0.2-0.8,0.1-1.1s0.8-0.2,1.1,0.1c26.1,30.2,22.9,75.8-7.3,101.9c-1.9,1.6-3.9,3.2-5.9,4.6
		C178.9,131.6,178.7,131.6,178.6,131.6z"/>
	<path class="st1" d="M79.2,31.8c-0.4,0-0.7-0.3-0.7-0.8c0-0.2,0-0.3,0.1-0.4c23-32.6,68.1-40.4,100.7-17.3c1.6,1.1,3.2,2.3,4.7,3.6
		c0.3,0.3,0.4,0.8,0.1,1.1c-0.3,0.3-0.8,0.4-1.1,0.1l0,0c-30-25.1-74.6-21.1-99.7,8.9c-1.2,1.5-2.4,3-3.5,4.6
		C79.7,31.6,79.4,31.8,79.2,31.8z"/>
	<path class="st1" d="M65.8,80c0-0.4,0.2-0.8,0.7-0.8c0,0,0,0,0,0l0,0c0.4,0,0.8,0.2,0.8,0.7c0,0,0,0,0,0l0,0c0,0.4-0.2,0.8-0.7,0.8
		c0,0,0,0,0,0h-0.1C66.1,80.6,65.8,80.4,65.8,80z M65.3,72.9L65.3,72.9c0-0.4,0.3-0.7,0.7-0.8c0,0,0,0,0,0l0,0
		c0.4,0,0.7,0.3,0.8,0.7l0,0c0,0.4-0.3,0.8-0.7,0.8c0,0,0,0,0,0l0,0C65.7,73.7,65.4,73.3,65.3,72.9z M66.3,66.7
		c-0.4,0-0.7-0.4-0.7-0.8c0,0,0,0,0,0l0,0c0-0.4,0.4-0.7,0.8-0.7l0,0c0.4,0,0.7,0.4,0.7,0.8l0,0C67.1,66.4,66.8,66.7,66.3,66.7
		L66.3,66.7L66.3,66.7z M67.2,59.7c-0.4-0.1-0.7-0.5-0.6-0.9c0,0,0,0,0,0l0,0c0.1-0.4,0.5-0.7,0.9-0.6c0,0,0,0,0,0l0,0
		c0.4,0.1,0.7,0.5,0.6,0.9c0,0,0,0,0,0l0,0c-0.1,0.4-0.4,0.6-0.7,0.6L67.2,59.7L67.2,59.7z M68.8,52.9c-0.4-0.1-0.6-0.5-0.5-0.9l0,0
		l0,0c0.1-0.4,0.5-0.6,0.9-0.5c0,0,0,0,0,0l0,0c0.4,0.1,0.6,0.5,0.5,0.9l0,0c-0.1,0.3-0.4,0.5-0.7,0.5l0,0L68.8,52.9z M71,46.3
		c-0.4-0.2-0.6-0.6-0.4-1c0,0,0,0,0,0l0,0c0.1-0.4,0.6-0.6,0.9-0.4c0,0,0,0,0.1,0l0,0c0.4,0.1,0.6,0.6,0.4,1c0,0,0,0,0,0l0,0
		c-0.1,0.3-0.4,0.5-0.7,0.5l0,0C71.2,46.3,71.1,46.3,71,46.3L71,46.3z"/>
</g>
<g id="inner_circle" class="st0">
	<path class="st1" d="M134.9,128.4L134.9,128.4c-31-1.5-54.9-27.8-53.4-58.9c0.1-3,0.5-6,1.2-9c0.1-0.4,0.5-0.7,0.9-0.6
		s0.7,0.5,0.6,0.9l0,0c-6.3,29.6,12.6,58.6,42.2,64.9c2.9,0.6,5.8,1,8.7,1.1c0.4,0,0.8,0.3,0.8,0.8S135.4,128.4,134.9,128.4
		L134.9,128.4z"/>
	<path class="st1" d="M146.5,127c-0.1-0.4,0.2-0.8,0.6-0.9c0,0,0,0,0,0l0,0c0.4-0.1,0.8,0.2,0.9,0.6l0,0c0.1,0.4-0.2,0.8-0.6,0.9
		c0,0,0,0,0,0h-0.1C146.9,127.6,146.6,127.4,146.5,127z M153.3,125.4c-0.1-0.4,0.1-0.8,0.5-0.9l0,0c0.4-0.1,0.8,0.1,0.9,0.5l0,0
		c0.1,0.4-0.1,0.8-0.5,0.9l0,0c-0.1,0-0.1,0-0.2,0l0,0C153.7,126,153.4,125.8,153.3,125.4L153.3,125.4z M159.9,123
		c-0.2-0.4,0-0.8,0.3-1c0,0,0,0,0,0l0,0c0.4-0.2,0.8,0,1,0.3c0,0,0,0,0,0l0,0c0.2,0.4,0,0.8-0.4,1c0,0,0,0,0,0l0,0
		c-0.1,0-0.2,0.1-0.3,0.1l0,0C160.3,123.5,160,123.3,159.9,123L159.9,123z M166.1,119.8c-0.2-0.3-0.1-0.8,0.2-1l0,0
		c0.3-0.2,0.8-0.1,1,0.2l0,0c0.2,0.3,0.1,0.8-0.2,1l0,0c-0.1,0.1-0.3,0.1-0.4,0.1l0,0C166.5,120.2,166.2,120,166.1,119.8
		L166.1,119.8z M171.9,115.8c-0.2-0.3-0.2-0.7,0.1-1l0,0c0.3-0.3,0.8-0.2,1.1,0.1l0,0c0.3,0.3,0.2,0.8-0.1,1.1c0,0,0,0,0,0l0,0
		c-0.1,0.1-0.3,0.2-0.5,0.2l0,0C172.2,116.2,172,116,171.9,115.8L171.9,115.8z M177.1,111.2c-0.3-0.3-0.3-0.8,0-1.1l0,0
		c0.3-0.3,0.7-0.3,1,0l0,0c0.3,0.3,0.3,0.8,0,1c0,0,0,0,0,0l0,0c-0.1,0.2-0.3,0.2-0.6,0.2l0,0C177.4,111.4,177.2,111.3,177.1,111.2
		L177.1,111.2z"/>
	<path class="st1" d="M186.1,99.1c-0.4-0.2-0.5-0.6-0.3-1l0,0c0.2-0.4,0.6-0.5,1-0.3l0,0c0.4,0.2,0.5,0.6,0.3,1l0,0
		c-0.1,0.2-0.4,0.4-0.7,0.4l0,0C186.3,99.2,186.2,99.2,186.1,99.1z M189.1,92.8c-0.4-0.1-0.6-0.5-0.5-0.9c0,0,0-0.1,0-0.1l0,0
		c0.1-0.4,0.5-0.6,0.9-0.5c0,0,0.1,0,0.1,0l0,0c0.4,0.1,0.6,0.6,0.5,1c0,0,0,0,0,0l0,0c-0.1,0.3-0.4,0.5-0.7,0.5l0,0
		C189.3,92.9,189.2,92.9,189.1,92.8z M191.3,86.2c-0.4-0.1-0.6-0.5-0.5-0.9l0,0c0.1-0.4,0.5-0.6,0.9-0.6c0,0,0,0,0,0l0,0
		c0.4,0.1,0.6,0.5,0.6,0.9c0,0,0,0,0,0l0,0c-0.1,0.3-0.4,0.6-0.7,0.6l0,0L191.3,86.2z M192.6,79.3c-0.4,0-0.7-0.4-0.7-0.8
		c0,0,0,0,0,0l0,0c0-0.4,0.4-0.7,0.8-0.7c0,0,0,0,0,0l0,0c0.4,0.1,0.7,0.4,0.7,0.8l0,0C193.4,79,193.1,79.3,192.6,79.3L192.6,79.3
		L192.6,79.3z M192.3,71.6c0-0.4,0.3-0.8,0.7-0.8c0,0,0,0,0,0l0,0c0.4,0,0.7,0.3,0.8,0.7c0,0,0,0,0,0l0,0c0,0.4-0.3,0.8-0.7,0.8
		c0,0,0,0,0,0l0,0C192.7,72.3,192.3,72,192.3,71.6C192.3,71.6,192.3,71.6,192.3,71.6z M191.8,64.7c-0.1-0.4,0.2-0.8,0.6-0.8
		c0,0,0,0,0,0l0,0c0.4-0.1,0.8,0.2,0.8,0.6c0,0,0,0,0,0l0,0c0.1,0.4-0.2,0.8-0.6,0.8h-0.1C192.1,65.3,191.8,65.1,191.8,64.7
		L191.8,64.7z"/>
	<path class="st1" d="M189.2,52.7c-0.3,0-0.6-0.2-0.7-0.5c-1.1-2.9-2.5-5.6-4.1-8.2c-5.1-8.5-12.5-15.4-21.2-20
		c-0.4-0.2-0.5-0.6-0.3-1s0.6-0.5,1-0.3c11.8,6.3,21.1,16.6,26,29.1c0.2,0.4,0,0.8-0.4,1c0,0,0,0,0,0
		C189.4,52.7,189.3,52.7,189.2,52.7z"/>
	<path class="st1" d="M87,50.4c-0.1,0-0.2,0-0.3-0.1c-0.4-0.2-0.6-0.6-0.4-1c0,0,0,0,0,0c11.5-25.7,40.1-39,67.1-31.1
		c0.4,0.1,0.6,0.5,0.5,0.9c-0.1,0.4-0.5,0.6-0.9,0.5C126.7,12.1,98.8,25,87.6,50C87.5,50.3,87.3,50.4,87,50.4z"/>
</g>
<g id="ENGAGE">
	<g>
		<path class="st2" d="M0,45.9h32.7v8.1H8.6v12.1h14.9v8.1H8.6v13.8h25.7v8.1H0V45.9z"/>
	</g>
	<g>
		<path class="st3" d="M75.3,96.2L54.4,64.5c-0.7-1-1.4-2.4-2.1-3.7c0.1,1.2,0.2,2.5,0.2,3.7v31.8H44V45.9h8.3l20.3,31.2
			c0.8,1.2,1.5,2.5,2.1,3.8c-0.1-1.3-0.2-2.5-0.2-3.8V45.9h8.6v50.3H75.3z"/>
	</g>
	<g>
		<path class="st4" d="M93.5,71.1c0-12.3,7-26,22-26c9.7,0,14.3,4.9,17.6,10.1l-7.6,4.4c-2.2-3.3-5.2-6.2-9.9-6.2
			c-10.1,0-13.1,9.8-13.1,17.7c0,9,3.8,17.7,13.1,17.7c5.2,0.2,9.5-3.9,9.7-9c0-0.1,0-0.3,0-0.4v-0.8h-8.8v-8.1h17.6v7
			c0,12.8-8,19.7-18.5,19.7C100,97.1,93.5,84.2,93.5,71.1z"/>
	</g>
	<g>
		<path class="st5" d="M173.8,85.2h-19.9l-4,11h-9.1l18.8-50.3h8.6l18.7,50.3h-9L173.8,85.2z M165.5,62.4c-0.7-1.7-1.2-3.4-1.6-5.1
			c-0.4,1.5-1.1,3.7-1.6,5.1l-5.6,15.1h14.4L165.5,62.4z"/>
	</g>
	<g>
		<path class="st6" d="M193.8,71.1c0-12.3,7-26,22-26c9.7,0,14.3,4.9,17.6,10.1l-7.7,4.4c-2.2-3.3-5.2-6.2-9.9-6.2
			c-10.1,0-13.1,9.8-13.1,17.7c0,9,3.8,17.7,13.1,17.7c5.2,0.2,9.5-3.9,9.7-9c0-0.1,0-0.3,0-0.4v-0.8h-8.8v-8.1h17.6v7
			c0,12.8-8,19.7-18.5,19.7C200.3,97.1,193.8,84.2,193.8,71.1z"/>
	</g>
	<g>
		<path class="st7" d="M244.5,45.9h32.8v8.1h-24.1v12.1h14.9v8.1h-14.9v13.8h25.7v8.1h-34.4V45.9z"/>
	</g>
</g>
</svg>
