<?xml version="1.0" encoding="utf-8"?>
<!-- Generator: Adobe Illustrator 21.0.2, SVG Export Plug-In . SVG Version: 6.00 Build 0)  -->
<svg version="1.1"
	 id="svg8" inkscape:export-filename="/home/mclayton/workspace/engage/src/images/cve.png" inkscape:export-xdpi="1808.04" inkscape:export-ydpi="1808.04" inkscape:version="0.92.1 r" sodipodi:docname="labs.svg" xmlns:cc="http://creativecommons.org/ns#" xmlns:dc="http://purl.org/dc/elements/1.1/" xmlns:inkscape="http://www.inkscape.org/namespaces/inkscape" xmlns:osb="http://www.openswatchbook.org/uri/2009/osb" xmlns:rdf="http://www.w3.org/1999/02/22-rdf-syntax-ns#" xmlns:sodipodi="http://sodipodi.sourceforge.net/DTD/sodipodi-0.dtd" xmlns:svg="http://www.w3.org/2000/svg"
	 xmlns="http://www.w3.org/2000/svg" xmlns:xlink="http://www.w3.org/1999/xlink" x="0px" y="0px" viewBox="0 0 100 100"
	 style="enable-background:new 0 0 100 100;" xml:space="preserve">
<style type="text/css">
	.st0{fill:url(#path4624_1_);stroke:url(#path4624_2_);stroke-width:173.5575;stroke-linejoin:round;}
	.st1{fill:#00BDBD;}
	.st2{fill:#00A9A9;}
	.st3{fill:none;stroke:url(#path6949_1_);stroke-width:112.6956;stroke-linejoin:round;}
	.st4{fill:url(#path5039_1_);stroke:url(#path5039_2_);stroke-width:141.124;stroke-linecap:round;stroke-linejoin:round;}
	.st5{fill:url(#path5047_1_);stroke:url(#path5047_2_);stroke-width:141.124;stroke-linecap:round;stroke-linejoin:round;}
	.st6{fill:url(#path5051_1_);stroke:url(#path5051_2_);stroke-width:141.124;stroke-linecap:round;stroke-linejoin:round;}
	.st7{fill:#E0FAFA;fill-opacity:0.7165;}
</style>
<sodipodi:namedview  bordercolor="#666666" borderopacity="1.0" fit-margin-bottom="0" fit-margin-left="0" fit-margin-right="0" fit-margin-top="0" id="base" inkscape:current-layer="layer1" inkscape:cx="17955.21294230101" inkscape:cy="-8247.162056560737" inkscape:document-units="mm" inkscape:object-paths="true" inkscape:pageopacity="0" inkscape:pageshadow="2" inkscape:snap-global="false" inkscape:snap-grids="false" inkscape:snap-others="true" inkscape:snap-to-guides="true" inkscape:window-height="1080" inkscape:window-maximized="1" inkscape:window-width="1920" inkscape:window-x="0" inkscape:window-y="0" inkscape:zoom="0.01414213562" pagecolor="#252142" showgrid="false">
	<inkscape:grid  id="grid4546" originx="-91.48657" originy="-148.85089" type="xygrid"></inkscape:grid>
</sodipodi:namedview>
<g id="layer1" transform="translate(-91.486564,3525.6552)" inkscape:groupmode="layer" inkscape:label="Layer 1">
	
		<linearGradient id="path4624_1_" gradientUnits="userSpaceOnUse" x1="-1150.6459" y1="-2108.9775" x2="-1150.6459" y2="-2108.9775" gradientTransform="matrix(0 0 0 0 0 0)">
		<stop  offset="0" style="stop-color:#E8E8E8"/>
		<stop  offset="1" style="stop-color:#000000"/>
	</linearGradient>
	
		<linearGradient id="path4624_2_" gradientUnits="userSpaceOnUse" x1="-1242.9636" y1="-2108.9775" x2="-1241.9636" y2="-2108.9775" gradientTransform="matrix(0 0 0 0 0 0)">
		<stop  offset="0" style="stop-color:#E8E8E8"/>
		<stop  offset="1" style="stop-color:#000000"/>
	</linearGradient>
	
		<path id="path4624" inkscape:connector-curvature="0" inkscape:export-xdpi="0.6399999856948853" inkscape:export-ydpi="0.6399999856948853" sodipodi:nodetypes="ccccccccccccc" class="st0" d="
		M121.1-3523.4c-4.2,0-4.6,0-4.6,0c4.6,9.3,6.2,9.1,6.4,16.8v14.7L95.6-3438c-2.6,5,0.5,11.6,6.1,11.6h80.1c5.6,0,8.1-7.2,5.5-12.2
		l-26.8-53.3v-14.7c0-7.5,2.4-7.5,7.1-16.8c0,0-0.5,0-4.6,0H121.1z"/>
	
		<path id="path4517" inkscape:connector-curvature="0" inkscape:export-xdpi="0.6399999856948853" inkscape:export-ydpi="0.6399999856948853" class="st1" d="
		M118.8-3485.6l-23.2,47.2c-2.6,5.2,0.5,11.9,6.1,11.9h80.1c5.6,0,8.1-7.4,5.5-12.5l-22.8-46.6H118.8z"/>
	
		<path id="path4515" inkscape:connector-curvature="0" inkscape:export-xdpi="0.6399999856948853" inkscape:export-ydpi="0.6399999856948853" sodipodi:nodetypes="ccccc" class="st2" d="
		M109.2-3428l68.8,1.6c11.1,0.5,11.6-7.6,9-12.7l-25.1-48.2C190-3421.8,162.5-3429.5,109.2-3428z"/>
	
		<linearGradient id="path6949_1_" gradientUnits="userSpaceOnUse" x1="-1242.9636" y1="-2108.9775" x2="-1241.9636" y2="-2108.9775" gradientTransform="matrix(0 0 0 0 0 0)">
		<stop  offset="0" style="stop-color:#E8E8E8"/>
		<stop  offset="1" style="stop-color:#000000"/>
	</linearGradient>
	
		<path id="path6949" inkscape:connector-curvature="0" inkscape:export-xdpi="0.6399999856948853" inkscape:export-ydpi="0.6399999856948853" class="st3" d="
		M118.8-3485.6l-23.2,47.2c-2.6,5.2,0.5,11.9,6.1,11.9h80.1c5.6,0,8.1-7.4,5.5-12.5l-22.8-46.6H118.8z"/>
	
		<linearGradient id="path5039_1_" gradientUnits="userSpaceOnUse" x1="-1150.6459" y1="-2108.9775" x2="-1150.6459" y2="-2108.9775" gradientTransform="matrix(0 0 0 0 0 0)">
		<stop  offset="0" style="stop-color:#E8E8E8"/>
		<stop  offset="1" style="stop-color:#000000"/>
	</linearGradient>
	
		<linearGradient id="path5039_2_" gradientUnits="userSpaceOnUse" x1="-1242.9636" y1="-2108.9775" x2="-1241.9636" y2="-2108.9775" gradientTransform="matrix(0 0 0 0 0 0)">
		<stop  offset="0" style="stop-color:#E8E8E8"/>
		<stop  offset="1" style="stop-color:#000000"/>
	</linearGradient>
	
		<path id="path5039" inkscape:connector-curvature="0" inkscape:export-xdpi="0.6399999856948853" inkscape:export-ydpi="0.6399999856948853" class="st4" d="
		M160.5-3453.8h18.6"/>
	
		<linearGradient id="path5047_1_" gradientUnits="userSpaceOnUse" x1="-1150.6459" y1="-2108.9775" x2="-1150.6459" y2="-2108.9775" gradientTransform="matrix(0 0 0 0 0 0)">
		<stop  offset="0" style="stop-color:#E8E8E8"/>
		<stop  offset="1" style="stop-color:#000000"/>
	</linearGradient>
	
		<linearGradient id="path5047_2_" gradientUnits="userSpaceOnUse" x1="-1242.9636" y1="-2108.9775" x2="-1241.9636" y2="-2108.9775" gradientTransform="matrix(0 0 0 0 0 0)">
		<stop  offset="0" style="stop-color:#E8E8E8"/>
		<stop  offset="1" style="stop-color:#000000"/>
	</linearGradient>
	
		<path id="path5047" inkscape:connector-curvature="0" inkscape:export-xdpi="0.6399999856948853" inkscape:export-ydpi="0.6399999856948853" class="st5" d="
		M155.9-3463.1h18.6"/>
	
		<linearGradient id="path5051_1_" gradientUnits="userSpaceOnUse" x1="-1150.6459" y1="-2108.9775" x2="-1150.6459" y2="-2108.9775" gradientTransform="matrix(0 0 0 0 0 0)">
		<stop  offset="0" style="stop-color:#E8E8E8"/>
		<stop  offset="1" style="stop-color:#000000"/>
	</linearGradient>
	
		<linearGradient id="path5051_2_" gradientUnits="userSpaceOnUse" x1="-1242.9636" y1="-2108.9775" x2="-1241.9636" y2="-2108.9775" gradientTransform="matrix(0 0 0 0 0 0)">
		<stop  offset="0" style="stop-color:#E8E8E8"/>
		<stop  offset="1" style="stop-color:#000000"/>
	</linearGradient>
	
		<path id="path5051" inkscape:connector-curvature="0" inkscape:export-xdpi="0.6399999856948853" inkscape:export-ydpi="0.6399999856948853" class="st6" d="
		M151.3-3472.4h18.6"/>
	
		<path id="path4883" inkscape:connector-curvature="0" inkscape:export-xdpi="0.6399999856948853" inkscape:export-ydpi="0.6399999856948853" sodipodi:nodetypes="ccccccccccc" class="st7" d="
		M124.3-3483.7l-16.3,45.2c-0.9,2.6-0.6,6.2,0.8,8.4c0.9,1.1,1.9,1.9,3.2,2.1c-0.7,0-4.2,0-5,0c-1,0-2-0.5-2.7-1.2
		c-0.6-0.6-1.1-1.4-1.4-2.2c-0.7-1.8-0.7-3.7-0.2-5.5c0.2-0.7,0.5-1.4,0.9-2.1c1-1.9,1.9-3.9,2.8-5.8
		C112.9-3457.9,118-3470.8,124.3-3483.7z"/>
</g>
</svg>
