<?xml version="1.0" encoding="utf-8"?>
<!-- Generator: Adobe Illustrator 19.0.0, SVG Export Plug-In . SVG Version: 6.00 Build 0)  -->
<!DOCTYPE svg PUBLIC "-//W3C//DTD SVG 1.1//EN" "http://www.w3.org/Graphics/SVG/1.1/DTD/svg11.dtd">
<svg version="1.1"
	 id="svg8" xmlns:cc="http://creativecommons.org/ns#" xmlns:rdf="http://www.w3.org/1999/02/22-rdf-syntax-ns#" xmlns:svg="http://www.w3.org/2000/svg" xmlns:dc="http://purl.org/dc/elements/1.1/" xmlns:osb="http://www.openswatchbook.org/uri/2009/osb"
	 xmlns="http://www.w3.org/2000/svg" xmlns:xlink="http://www.w3.org/1999/xlink" x="0px" y="0px"
	 viewBox="-217 223.86 355.15 167.14" style="enable-background:new -217 223.86 355.15 167.14;" xml:space="preserve">
<style type="text/css">
	.st0{fill:url(#path4569_1_);}
	.st1{fill:#9ADBE9;}
	.st2{fill:#FFFFFF;filter:url(#Adobe_OpacityMaskFilter);}
	.st3{mask:url(#mask5363);fill:#9ADBE9;}
	.st4{fill:#FFFFFF;filter:url(#Adobe_OpacityMaskFilter_1_);}
	.st5{mask:url(#mask5359);fill:#7DD1E3;}
	.st6{fill:#FFFFFF;filter:url(#Adobe_OpacityMaskFilter_2_);}
	.st7{mask:url(#mask5355);fill:#62C7DD;}
	.st8{fill:#FFFFFF;filter:url(#Adobe_OpacityMaskFilter_3_);}
	.st9{mask:url(#mask5351);fill:#43BCD6;}
	.st10{fill:#FFFFFF;filter:url(#Adobe_OpacityMaskFilter_4_);}
	.st11{mask:url(#mask5347);fill:#2AA6C1;}
	.st12{fill:#FFFFFF;filter:url(#Adobe_OpacityMaskFilter_5_);}
	.st13{mask:url(#mask5343);fill:#208094;}
	.st14{fill:#FFFFFF;filter:url(#Adobe_OpacityMaskFilter_6_);}
	.st15{mask:url(#mask5339);fill:#196272;}
	.st16{fill:#FFFFFF;filter:url(#Adobe_OpacityMaskFilter_7_);}
	.st17{mask:url(#mask5335);fill:#124954;}
	.st18{fill:#FFFFFF;filter:url(#Adobe_OpacityMaskFilter_8_);}
	.st19{mask:url(#mask5331);fill:#0F3A44;}
	.st20{fill:none;stroke:#9ADBE9;stroke-width:1.5;stroke-linecap:round;stroke-miterlimit:10;}
	.st21{fill:none;stroke:#9ADBE9;stroke-width:1.5;stroke-linecap:round;stroke-miterlimit:10;stroke-dasharray:0,7;}
</style>
<g id="layer1" transform="translate(-84.23832042980957,-83.41473324260851)">
	
		<linearGradient id="path4569_1_" gradientUnits="userSpaceOnUse" x1="-373.8752" y1="619.2891" x2="-373.8752" y2="619.2891" gradientTransform="matrix(2.7513 0 0 -2.7513 1059.7433 2066.0837)">
		<stop  offset="0" style="stop-color:#9ADBE9"/>
		<stop  offset="1" style="stop-color:#000000"/>
	</linearGradient>
	<circle id="path4569" class="st0" cx="31.11" cy="362.25" r="0"/>
	<circle id="circle4617" class="st1" cx="168.47" cy="361.19" r="47.2"/>
	<circle id="circle5160" class="st1" cx="31.11" cy="362.25" r="47.2"/>
	<g id="g5419">
		<defs>
			<filter id="Adobe_OpacityMaskFilter" filterUnits="userSpaceOnUse" x="-132.76" y="310.54" width="94.4" height="94.4">
				<feColorMatrix  type="matrix" values="1 0 0 0 0  0 1 0 0 0  0 0 1 0 0  0 0 0 1 0"/>
			</filter>
		</defs>
		<mask maskUnits="userSpaceOnUse" x="-132.76" y="310.54" width="94.4" height="94.4" id="mask5363">
			<circle id="circle5365" class="st2" cx="67.04" cy="561.05" r="47.2"/>
		</mask>
		<circle id="circle5204" class="st3" cx="-85.56" cy="357.74" r="47.2"/>
		<defs>
			<filter id="Adobe_OpacityMaskFilter_1_" filterUnits="userSpaceOnUse" x="-132.76" y="317.17" width="94.4" height="94.4">
				<feColorMatrix  type="matrix" values="1 0 0 0 0  0 1 0 0 0  0 0 1 0 0  0 0 0 1 0"/>
			</filter>
		</defs>
		<mask maskUnits="userSpaceOnUse" x="-132.76" y="317.17" width="94.4" height="94.4" id="mask5359">
			<circle id="circle5361" class="st4" cx="67.04" cy="561.05" r="47.2"/>
		</mask>
		<circle id="circle5225" class="st5" cx="-85.56" cy="364.37" r="47.2"/>
		<defs>
			<filter id="Adobe_OpacityMaskFilter_2_" filterUnits="userSpaceOnUse" x="-132.76" y="324.6" width="94.4" height="94.4">
				<feColorMatrix  type="matrix" values="1 0 0 0 0  0 1 0 0 0  0 0 1 0 0  0 0 0 1 0"/>
			</filter>
		</defs>
		<mask maskUnits="userSpaceOnUse" x="-132.76" y="324.6" width="94.4" height="94.4" id="mask5355">
			<circle id="circle5357" class="st6" cx="67.04" cy="561.05" r="47.2"/>
		</mask>
		<circle id="circle5227" class="st7" cx="-85.56" cy="371.8" r="47.2"/>
		<defs>
			<filter id="Adobe_OpacityMaskFilter_3_" filterUnits="userSpaceOnUse" x="-132.76" y="333.88" width="94.4" height="94.4">
				<feColorMatrix  type="matrix" values="1 0 0 0 0  0 1 0 0 0  0 0 1 0 0  0 0 0 1 0"/>
			</filter>
		</defs>
		<mask maskUnits="userSpaceOnUse" x="-132.76" y="333.88" width="94.4" height="94.4" id="mask5351">
			<circle id="circle5353" class="st8" cx="67.04" cy="561.05" r="47.2"/>
		</mask>
		<circle id="circle5229" class="st9" cx="-85.56" cy="381.08" r="47.2"/>
		<defs>
			<filter id="Adobe_OpacityMaskFilter_4_" filterUnits="userSpaceOnUse" x="-132.76" y="342.1" width="94.4" height="94.4">
				<feColorMatrix  type="matrix" values="1 0 0 0 0  0 1 0 0 0  0 0 1 0 0  0 0 0 1 0"/>
			</filter>
		</defs>
		<mask maskUnits="userSpaceOnUse" x="-132.76" y="342.1" width="94.4" height="94.4" id="mask5347">
			<circle id="circle5349" class="st10" cx="67.04" cy="561.05" r="47.2"/>
		</mask>
		<circle id="circle5231" class="st11" cx="-85.56" cy="389.3" r="47.2"/>
		<defs>
			<filter id="Adobe_OpacityMaskFilter_5_" filterUnits="userSpaceOnUse" x="-132.76" y="350.85" width="94.4" height="94.4">
				<feColorMatrix  type="matrix" values="1 0 0 0 0  0 1 0 0 0  0 0 1 0 0  0 0 0 1 0"/>
			</filter>
		</defs>
		<mask maskUnits="userSpaceOnUse" x="-132.76" y="350.85" width="94.4" height="94.4" id="mask5343">
			<circle id="circle5345" class="st12" cx="67.04" cy="561.05" r="47.2"/>
		</mask>
		<circle id="circle5233" class="st13" cx="-85.56" cy="398.05" r="47.2"/>
		<defs>
			<filter id="Adobe_OpacityMaskFilter_6_" filterUnits="userSpaceOnUse" x="-132.76" y="361.45" width="94.4" height="94.4">
				<feColorMatrix  type="matrix" values="1 0 0 0 0  0 1 0 0 0  0 0 1 0 0  0 0 0 1 0"/>
			</filter>
		</defs>
		<mask maskUnits="userSpaceOnUse" x="-132.76" y="361.45" width="94.4" height="94.4" id="mask5339">
			<circle id="circle5341" class="st14" cx="67.04" cy="561.05" r="47.2"/>
		</mask>
		<circle id="circle5235" class="st15" cx="-85.56" cy="408.65" r="47.2"/>
		<defs>
			<filter id="Adobe_OpacityMaskFilter_7_" filterUnits="userSpaceOnUse" x="-132.76" y="370.74" width="94.4" height="94.4">
				<feColorMatrix  type="matrix" values="1 0 0 0 0  0 1 0 0 0  0 0 1 0 0  0 0 0 1 0"/>
			</filter>
		</defs>
		<mask maskUnits="userSpaceOnUse" x="-132.76" y="370.74" width="94.4" height="94.4" id="mask5335">
			<circle id="circle5337" class="st16" cx="67.04" cy="561.05" r="47.2"/>
		</mask>
		<circle id="circle5237" class="st17" cx="-85.56" cy="417.93" r="47.2"/>
		<defs>
			<filter id="Adobe_OpacityMaskFilter_8_" filterUnits="userSpaceOnUse" x="-132.76" y="380.02" width="94.4" height="94.4">
				<feColorMatrix  type="matrix" values="1 0 0 0 0  0 1 0 0 0  0 0 1 0 0  0 0 0 1 0"/>
			</filter>
		</defs>
		<mask maskUnits="userSpaceOnUse" x="-132.76" y="380.02" width="94.4" height="94.4" id="mask5331">
			<circle id="circle5333" class="st18" cx="67.04" cy="561.05" r="47.2"/>
		</mask>
		<circle id="circle5239" class="st19" cx="-85.56" cy="427.22" r="47.2"/>
	</g>
	<g id="pattern_1">
		<g>
			<path class="st20" d="M-23.16,390.5c-4.41-8.45-6.9-18.06-6.9-28.25c0-27.22,17.77-50.29,42.35-58.23"/>
			<path class="st20" d="M73.72,406.17c-11.02,10.69-26.04,17.26-42.6,17.26c-19.52,0-36.91-9.14-48.11-23.38"/>
			<path class="st20" d="M63.55,310.36c17.27,10.82,28.75,30.01,28.75,51.89c0,13.72-4.52,26.39-12.15,36.6"/>
			<path class="st21" d="M21.16,301.87c3.24-0.53,6.57-0.81,9.96-0.81c8.45,0,16.5,1.71,23.82,4.81"/>
			<path class="st21" d="M17.34,312.67c4.38-1.21,9-1.86,13.77-1.86c8.88,0,17.23,2.25,24.52,6.21"/>
			<path class="st20" d="M-17.95,346.72c4.46-14.09,14.82-25.56,28.18-31.5"/>
			<path class="st21" d="M-15.45,384.16c-3.13-6.65-4.89-14.08-4.89-21.91c0-2.74,0.21-5.43,0.63-8.05"/>
			<path class="st20" d="M56.56,406.97c-7.51,4.28-16.19,6.73-25.45,6.73c-16.77,0-31.67-8.03-41.06-20.45"/>
			<path class="st20" d="M62.67,321.62c12.1,9.41,19.89,24.11,19.89,40.63c0,15.85-7.17,30.02-18.44,39.46"/>
			<path class="st20" d="M-0.33,409.02c-15.03-10.12-24.91-27.29-24.91-46.77c0-14.92,5.8-28.49,15.27-38.58"/>
			<path class="st21" d="M45.69,416.7c-4.65,1.24-9.54,1.9-14.58,1.9c-8.37,0-16.31-1.82-23.45-5.1"/>
			<path class="st21" d="M82.92,384.48C77.32,397.51,66.95,408,54,413.76"/>
			<path class="st20" d="M79.46,333.27c5.09,8.47,8.01,18.38,8.01,28.98c0,3.22-0.27,6.38-0.79,9.45"/>
			<path class="st20" d="M-1.08,315.99c9.13-6.36,20.22-10.09,32.19-10.09c16.45,0,31.25,7.04,41.55,18.28"/>
		</g>
	</g>
</g>
</svg>
