<svg xmlns="http://www.w3.org/2000/svg" viewBox="0 0 869.51 869.51">
  <defs>
    <style>g{opacity:.75;}.cls-1,.cls-10,.cls-11,.cls-12,.cls-13,.cls-14,.cls-15,.cls-16,.cls-17,.cls-18,.cls-19,.cls-2,.cls-20,.cls-21,.cls-22,.cls-23,.cls-24,.cls-25,.cls-26,.cls-27,.cls-28,.cls-29,.cls-3,.cls-30,.cls-31,.cls-32,.cls-33,.cls-4,.cls-5,.cls-6,.cls-7,.cls-8,.cls-9{fill:none;stroke:#000;stroke-linecap:round;stroke-miterlimit:10;}.cls-1,.cls-2{stroke-width:3.1px;}.cls-16,.cls-18,.cls-2,.cls-21,.cls-23,.cls-24,.cls-33,.cls-4,.cls-7,.cls-8{stroke-dasharray:0 7;}.cls-3{stroke-width:3.2px;}.cls-4,.cls-5{stroke-width:3.3px;}.cls-6,.cls-7{stroke-width:3.4px;}.cls-8,.cls-9{stroke-width:3.6px;}.cls-10,.cls-11{stroke-width:3.7px;}.cls-11,.cls-12,.cls-27,.cls-28,.cls-30{stroke-dasharray:0 8;}.cls-12,.cls-13{stroke-width:3.8px;}.cls-14{stroke-width:3.9px;}.cls-15,.cls-16{stroke-width:2.3px;}.cls-17{stroke-width:2.4px;}.cls-18,.cls-19{stroke-width:2.5px;}.cls-20,.cls-21{stroke-width:2.6px;}.cls-22,.cls-23{stroke-width:2.7px;}.cls-24,.cls-25{stroke-width:2.8px;}.cls-26,.cls-27{stroke-width:2.9px;}.cls-28,.cls-29{stroke-width:3px;}.cls-30,.cls-31{stroke-width:2.2px;}.cls-32,.cls-33{stroke-width:3.5px;}.cls-34{fill:#c00;}</style>
  </defs>
  <title>Summit pattern</title>
  <g>
    <g id="Layer_1-2" data-name="Layer 1">
      <path class="cls-1" d="M434.76,657.77c-123.17,0-223-99.85-223-223a224.57,224.57,0,0,1,3-36.43"/>
      <path class="cls-1" d="M623.92,552.93A223.15,223.15,0,0,1,471.57,654.74"/>
      <path class="cls-2" d="M655.39,402a224.84,224.84,0,0,1,2.38,32.71,222.26,222.26,0,0,1-18.6,89.31"/>
      <path class="cls-1" d="M530.53,233.3A223.55,223.55,0,0,1,650.11,376.62"/>
      <path class="cls-2" d="M347.95,229.27A224.2,224.2,0,0,1,482.67,216.9"/>
      <path class="cls-1" d="M219.4,376.61A223.5,223.5,0,0,1,324.49,240.87"/>
      <path class="cls-3" d="M305.56,282.42A199.79,199.79,0,0,1,607,333.54"/>
      <path class="cls-3" d="M249.42,509.37a200,200,0,0,1,26.84-196.18"/>
      <path class="cls-3" d="M351.39,616.32a200.58,200.58,0,0,1-88-78.89"/>
      <path class="cls-3" d="M532.73,608.85A200.36,200.36,0,0,1,376.79,626"/>
      <path class="cls-3" d="M625.08,374a200,200,0,0,1-61.26,213.24"/>
      <path class="cls-4" d="M258.55,425.12a175.59,175.59,0,0,1,35.6-97"/>
      <path class="cls-5" d="M374.66,600.72A176.63,176.63,0,0,1,259.2,452.8"/>
      <path class="cls-4" d="M521.5,588.47A177.12,177.12,0,0,1,399,607.6"/>
      <path class="cls-5" d="M608.12,467.88a176.55,176.55,0,0,1-73.47,112.37"/>
      <path class="cls-5" d="M318.3,302.17A176.47,176.47,0,0,1,611.22,434.76"/>
      <path class="cls-6" d="M298.84,505.5A153.31,153.31,0,0,1,387.6,289"/>
      <path class="cls-6" d="M541.41,544.72A153.2,153.2,0,0,1,314.29,529.4"/>
      <path class="cls-6" d="M516,304.83A153.24,153.24,0,0,1,557.52,526.4"/>
      <path class="cls-7" d="M409.81,283.58a154.27,154.27,0,0,1,24.94-2,152.71,152.71,0,0,1,59.63,12"/>
      <path class="cls-8" d="M406.21,332a107,107,0,0,1,79.37,9"/>
      <path class="cls-9" d="M333.05,402.57a107,107,0,0,1,58.41-65.31"/>
      <path class="cls-8" d="M338.24,480.18a106.23,106.23,0,0,1-10.13-45.43,107.44,107.44,0,0,1,1.3-16.68"/>
      <path class="cls-9" d="M487.52,527.46A106.7,106.7,0,0,1,349.64,499"/>
      <path class="cls-9" d="M500.17,350.52a106.65,106.65,0,0,1,3,166"/>
      <path class="cls-10" d="M514.26,409.59a83.43,83.43,0,0,1-79.51,108.53"/>
      <path class="cls-11" d="M462.13,356a83.64,83.64,0,0,1,47.44,41.95"/>
      <path class="cls-10" d="M368.2,384.53a83.24,83.24,0,0,1,66.55-33.15,84.32,84.32,0,0,1,8.89.47"/>
      <path class="cls-10" d="M412.58,515.14a83.43,83.43,0,0,1-61-74.37q-.21-3-.21-6a83.75,83.75,0,0,1,1.67-16.68,82.76,82.76,0,0,1,6.88-20.14"/>
      <path class="cls-12" d="M458.8,489.85A60.16,60.16,0,0,1,380.68,461"/>
      <path class="cls-13" d="M482.25,397.93a60.1,60.1,0,0,1-5,79.32"/>
      <path class="cls-13" d="M375.37,444a60.15,60.15,0,0,1,59.38-69.38,59.82,59.82,0,0,1,33.6,10.26"/>
      <path class="cls-14" d="M462,410a36.83,36.83,0,0,1-41.75,58.62"/>
      <path class="cls-14" d="M408.94,461a36.83,36.83,0,0,1,41.78-59.45"/>
      <path class="cls-15" d="M434.76,842.87c-225.39,0-408.11-182.72-408.11-408.11a411,411,0,0,1,5.42-66.67"/>
      <path class="cls-15" d="M780.93,651c-60.79,97.11-161.32,166.81-278.8,186.33"/>
      <path class="cls-16" d="M838.51,374.9a411.46,411.46,0,0,1,4.36,59.85,406.73,406.73,0,0,1-34,163.43"/>
      <path class="cls-15" d="M610,66.09c106.53,50.74,187.6,146.29,218.84,262.27"/>
      <path class="cls-16" d="M275.9,58.71A410.29,410.29,0,0,1,522.44,36.08"/>
      <path class="cls-15" d="M40.65,328.35A409,409,0,0,1,233,79.94"/>
      <path class="cls-17" d="M185.41,140.75A384,384,0,0,1,434.76,49.26c141.62,0,265.4,76.36,332.41,190.16"/>
      <path class="cls-17" d="M77.05,578.75a386.07,386.07,0,0,1,51.81-378.63"/>
      <path class="cls-17" d="M273.86,785.17A387.12,387.12,0,0,1,104,632.92"/>
      <path class="cls-17" d="M623.85,770.77a386.69,386.69,0,0,1-301,33"/>
      <path class="cls-17" d="M802.07,317.43a385.27,385.27,0,0,1,18.18,117.33c0,117.94-53,223.52-136.41,294.23"/>
      <path class="cls-18" d="M73.4,415a360,360,0,0,1,73-198.87"/>
      <path class="cls-19" d="M311.42,775C183.38,728.62,89,612,74.73,471.74"/>
      <path class="cls-18" d="M612.44,749.86a363.09,363.09,0,0,1-251.11,39.22"/>
      <path class="cls-19" d="M790,502.65A361.92,361.92,0,0,1,639.4,733"/>
      <path class="cls-19" d="M195.9,162.95A360.38,360.38,0,0,1,434.62,73c199.79,0,361.75,162,361.75,361.75"/>
      <path class="cls-20" d="M133,591.81A338.62,338.62,0,0,1,94.67,434.76c0-151.3,98.8-279.52,235.41-323.67"/>
      <path class="cls-20" d="M671.53,678.88a339,339,0,0,1-236.77,96c-108.52,0-205.16-50.83-267.43-130"/>
      <path class="cls-20" d="M615,146.32c96,60.12,159.83,166.82,159.83,288.44A338.57,338.57,0,0,1,707.3,638.2"/>
      <path class="cls-21" d="M379.38,99.16a342.48,342.48,0,0,1,55.38-4.49A339,339,0,0,1,567.13,121.4"/>
      <path class="cls-22" d="M258.59,696.77c-84.17-56.7-139.53-152.89-139.53-262a314.6,314.6,0,0,1,85.55-216.1"/>
      <path class="cls-23" d="M516.41,739.79a317.1,317.1,0,0,1-213-17.89"/>
      <path class="cls-23" d="M725,559.26A316.86,316.86,0,0,1,563,723.33"/>
      <path class="cls-22" d="M705.59,272.44a314.23,314.23,0,0,1,44.87,162.31A317.81,317.81,0,0,1,746,487.69"/>
      <path class="cls-22" d="M254.42,175.6A315.77,315.77,0,0,1,667.5,221.46"/>
      <path class="cls-24" d="M356.27,152.11a294.29,294.29,0,0,1,218.28,24.78"/>
      <path class="cls-25" d="M155.08,346.24A294.11,294.11,0,0,1,315.71,166.65"/>
      <path class="cls-24" d="M169.35,559.68a292.14,292.14,0,0,1-27.86-124.92,295.47,295.47,0,0,1,3.57-45.88"/>
      <path class="cls-25" d="M579.84,689.68a293.43,293.43,0,0,1-379.17-78.22"/>
      <path class="cls-25" d="M614.64,203.12a293.3,293.3,0,0,1,8.29,456.59"/>
      <path class="cls-26" d="M692.35,353.23a270,270,0,0,1,12.52,81.53c0,149.18-120.94,270.12-270.12,270.12"/>
      <path class="cls-27" d="M523.44,179.53A271,271,0,0,1,677.16,315.44"/>
      <path class="cls-26" d="M219.13,272a269.7,269.7,0,0,1,215.63-107.4,273.19,273.19,0,0,1,28.81,1.52"/>
      <path class="cls-26" d="M362.91,695.22c-108.28-29.8-189.34-125.32-197.58-241q-.69-9.66-.69-19.49A271.36,271.36,0,0,1,170,380.7a268.16,268.16,0,0,1,22.3-65.26"/>
      <path class="cls-28" d="M533.36,660.63A246.66,246.66,0,0,1,213.06,542.42"/>
      <path class="cls-29" d="M629.48,283.76A246.42,246.42,0,0,1,609,609"/>
      <path class="cls-29" d="M191.28,472.83a248.27,248.27,0,0,1-2.92-38.08c0-136.08,110.31-246.4,246.4-246.4a245.25,245.25,0,0,1,137.76,42.08"/>
      <path class="cls-30" d="M608.29,832.3a432.19,432.19,0,0,1-173.54,36.12c-171.56,0-319.85-99.62-390.18-244.17"/>
      <path class="cls-31" d="M777.46,169A433.7,433.7,0,0,1,741.4,741.4"/>
      <path class="cls-31" d="M6.25,501.77a437,437,0,0,1-5.15-67C1.1,195.25,195.25,1.1,434.76,1.1A431.64,431.64,0,0,1,677.22,75.16"/>
      <path class="cls-32" d="M362.26,542.58A129.94,129.94,0,0,1,340,345.82"/>
      <path class="cls-33" d="M468.36,560.29a130.49,130.49,0,0,1-87.67-7.36"/>
      <path class="cls-33" d="M554.18,486a130.4,130.4,0,0,1-66.66,67.52"/>
      <path class="cls-32" d="M546.21,368a129.31,129.31,0,0,1,18.46,66.8,130.79,130.79,0,0,1-1.82,21.78"/>
      <path class="cls-32" d="M360.54,328.11a129.95,129.95,0,0,1,170,18.87"/>
      <circle class="cls-34" cx="434.76" cy="434.76" r="17.19"/>
    </g>
  </g>
</svg>
